<svg preserveAspectRatio="none" width="100%" height="100%" overflow="visible" style="display: block;" viewBox="0 0 13 25" fill="none" xmlns="http://www.w3.org/2000/svg">
<path id="Vector" d="M11.3076 0.250977C11.4921 0.245495 11.6759 0.277843 11.8477 0.34668C12.0193 0.415483 12.1753 0.519113 12.3076 0.650391C12.4399 0.781737 12.5464 0.93839 12.6201 1.11133C12.6938 1.28422 12.7342 1.47059 12.7393 1.65918C12.7443 1.84773 12.7136 2.03612 12.6494 2.21289C12.5852 2.38955 12.488 2.55177 12.3633 2.69043L3.54785 12.4932L12.3613 22.2959L12.4512 22.4043C12.5362 22.5167 12.6054 22.6412 12.6553 22.7744C12.7217 22.9521 12.7539 23.1418 12.75 23.332C12.7461 23.5223 12.7057 23.7101 12.6318 23.8848C12.558 24.0594 12.4519 24.2182 12.3184 24.3506C12.1849 24.4829 12.0269 24.5866 11.8535 24.6553C11.68 24.724 11.4945 24.7559 11.3086 24.749C11.1226 24.7421 10.9397 24.6966 10.7715 24.6152C10.6041 24.5342 10.4547 24.4192 10.3311 24.2783V24.2793L0.625977 13.4844C0.383304 13.2147 0.25 12.8597 0.25 12.4932C0.250023 12.1266 0.383265 11.7716 0.625977 11.502L10.3311 0.708984V0.708008C10.4559 0.569237 10.6069 0.457718 10.7744 0.378906C10.942 0.300085 11.1232 0.256472 11.3076 0.250977Z" fill="var(--fill-0, black)" stroke="var(--stroke-0, black)" stroke-width="0.5"/>
</svg>
