<svg preserveAspectRatio="none" width="100%" height="100%" overflow="visible" style="display: block;" viewBox="0 0 22.3636 19.4545" fill="none" xmlns="http://www.w3.org/2000/svg">
<path id="Vector" d="M11.1818 5.36364C11.9091 2.49273 14.6559 1.02682 20.6364 1.00001C20.732 0.999645 20.8267 1.01821 20.9151 1.05463C21.0035 1.09105 21.0838 1.14461 21.1514 1.21221C21.219 1.27982 21.2726 1.36014 21.309 1.44854C21.3454 1.53694 21.364 1.63167 21.3636 1.72728V14.8182C21.3636 15.0111 21.287 15.196 21.1506 15.3324C21.0142 15.4688 20.8292 15.5455 20.6364 15.5455C14.8182 15.5455 12.5705 16.7186 11.1818 18.4545M11.1818 5.36364C10.4545 2.49273 7.70773 1.02682 1.72728 1.00001C1.63167 0.999645 1.53694 1.01821 1.44854 1.05463C1.36014 1.09105 1.27982 1.14461 1.21221 1.21221C1.14461 1.27982 1.09105 1.36014 1.05463 1.44854C1.01821 1.53694 0.999645 1.63167 1.00001 1.72728V14.7305C1.00001 15.1795 1.27819 15.5455 1.72728 15.5455C7.54546 15.5455 9.80136 16.7273 11.1818 18.4545M11.1818 5.36364V18.4545" stroke="var(--stroke-0, #ECF0F1)" stroke-width="2" stroke-linecap="round" stroke-linejoin="round"/>
</svg>
