<svg preserveAspectRatio="none" width="100%" height="100%" overflow="visible" style="display: block;" viewBox="0 0 18 18" fill="none" xmlns="http://www.w3.org/2000/svg">
<path id="Vector" d="M7 15C5.05 15 3.396 14.321 2.038 12.963C0.680003 11.605 0.000670115 9.95067 3.44827e-06 8V2C3.44827e-06 1.45 0.196003 0.979334 0.588003 0.588C0.980003 0.196667 1.45067 0.000666667 2 0H14.5C15.4667 0 16.2917 0.341667 16.975 1.025C17.6583 1.70833 18 2.53333 18 3.5C18 4.46667 17.6583 5.29167 16.975 5.975C16.2917 6.65833 15.4667 7 14.5 7H14V8C14 9.95 13.321 11.6043 11.963 12.963C10.605 14.3217 8.95067 15.0007 7 15ZM2 5H12V2H2V5ZM14 5H14.5C14.9167 5 15.271 4.85433 15.563 4.563C15.855 4.27167 16.0007 3.91733 16 3.5C15.9993 3.08267 15.8537 2.72867 15.563 2.438C15.2723 2.14733 14.918 2.00133 14.5 2H14V5ZM1 18C0.71667 18 0.479337 17.904 0.288004 17.712C0.0966702 17.52 0.000670115 17.2827 3.44827e-06 17C-0.000663218 16.7173 0.0953369 16.48 0.288004 16.288C0.48067 16.096 0.718003 16 1 16H15C15.2833 16 15.521 16.096 15.713 16.288C15.905 16.48 16.0007 16.7173 16 17C15.9993 17.2827 15.9033 17.5203 15.712 17.713C15.5207 17.9057 15.2833 18.0013 15 18H1Z" fill="var(--fill-0, #2C3E50)"/>
</svg>
