<svg preserveAspectRatio="none" width="100%" height="100%" overflow="visible" style="display: block;" viewBox="0 0 28.916 28.9168" fill="none" xmlns="http://www.w3.org/2000/svg">
<g id="Group">
<path id="Vector" d="M26.478 14.4982C26.6298 11.9167 25.993 9.35019 24.6522 7.13906C23.3114 4.92793 21.33 3.17677 18.9708 2.11791C16.6117 1.05905 13.9863 0.742569 11.4431 1.21045C8.89988 1.67833 6.55905 2.90845 4.7312 4.7376C2.90335 6.56675 1.67489 8.90845 1.20881 11.452C0.74274 13.9955 1.06109 16.6207 2.12162 18.9791C3.18215 21.3375 4.93472 23.3177 7.1468 24.6569C9.35888 25.9961 11.9259 26.6311 14.5072 26.4775M19.416 23.6668H27.916M23.666 19.4168V27.9168M9.49929 10.9168H9.51346M17.9993 10.9168H18.0135" stroke="var(--stroke-0, white)" stroke-width="2" stroke-linecap="round" stroke-linejoin="round"/>
<path id="Vector_2" d="M10.2076 18.0002C11.1398 18.9068 12.4176 19.4168 13.7493 19.4168C15.081 19.4168 16.3588 18.9068 17.291 18.0002" stroke="var(--stroke-0, white)" stroke-width="2" stroke-linecap="round" stroke-linejoin="round"/>
</g>
</svg>
