<svg preserveAspectRatio="none" width="100%" height="100%" overflow="visible" style="display: block;" viewBox="0 0 29.116 29.1168" fill="none" xmlns="http://www.w3.org/2000/svg">
<g id="Group">
<path id="Vector" d="M26.578 14.5982C26.7298 12.0167 26.093 9.45019 24.7522 7.23906C23.4114 5.02793 21.43 3.27677 19.0708 2.21791C16.7117 1.15905 14.0863 0.84257 11.5431 1.31045C8.99988 1.77833 6.65905 3.00845 4.8312 4.8376C3.00335 6.66675 1.77489 9.00845 1.30881 11.552C0.842741 14.0955 1.16109 16.7207 2.22162 19.0791C3.28215 21.4375 5.03472 23.4177 7.2468 24.7569C9.45888 26.0961 12.0259 26.7311 14.6072 26.5775M19.516 23.7668H28.016M23.766 19.5168V28.0168M9.59929 11.0168H9.61346M18.0993 11.0168H18.1135" stroke="var(--stroke-0, white)" stroke-width="2.2" stroke-linecap="round" stroke-linejoin="round"/>
<path id="Vector_2" d="M10.3076 18.1002C11.2398 19.0068 12.5176 19.5168 13.8493 19.5168C15.181 19.5168 16.4588 19.0068 17.391 18.1002" stroke="var(--stroke-0, white)" stroke-width="2.2" stroke-linecap="round" stroke-linejoin="round"/>
</g>
</svg>
