<svg preserveAspectRatio="none" width="100%" height="100%" overflow="visible" style="display: block;" viewBox="0 0 115 115" fill="none" xmlns="http://www.w3.org/2000/svg">
<g id="Ellipse 6">
<path d="M115 57.5C115 89.2564 89.2564 115 57.5 115C25.7436 115 0 89.2564 0 57.5C0 25.7436 25.7436 0 57.5 0C89.2564 0 115 25.7436 115 57.5ZM5.75 57.5C5.75 86.0807 28.9193 109.25 57.5 109.25C86.0807 109.25 109.25 86.0807 109.25 57.5C109.25 28.9193 86.0807 5.75 57.5 5.75C28.9193 5.75 5.75 28.9193 5.75 57.5Z" fill="var(--fill-0, white)"/>
<path d="M115 57.5C115 89.2564 89.2564 115 57.5 115C25.7436 115 0 89.2564 0 57.5C0 25.7436 25.7436 0 57.5 0C89.2564 0 115 25.7436 115 57.5ZM5.75 57.5C5.75 86.0807 28.9193 109.25 57.5 109.25C86.0807 109.25 109.25 86.0807 109.25 57.5C109.25 28.9193 86.0807 5.75 57.5 5.75C28.9193 5.75 5.75 28.9193 5.75 57.5Z" fill="var(--fill-1, #4A90E2)" fill-opacity="0.5"/>
<path d="M115 57.5C115 89.2564 89.2564 115 57.5 115C25.7436 115 0 89.2564 0 57.5C0 25.7436 25.7436 0 57.5 0C89.2564 0 115 25.7436 115 57.5ZM5.75 57.5C5.75 86.0807 28.9193 109.25 57.5 109.25C86.0807 109.25 109.25 86.0807 109.25 57.5C109.25 28.9193 86.0807 5.75 57.5 5.75C28.9193 5.75 5.75 28.9193 5.75 57.5Z" stroke="var(--stroke-0, black)"/>
</g>
</svg>
