<svg preserveAspectRatio="none" width="100%" height="100%" overflow="visible" style="display: block;" viewBox="0 0 24.75 24.75" fill="none" xmlns="http://www.w3.org/2000/svg">
<path id="Vector" fill-rule="evenodd" clip-rule="evenodd" d="M7.34951 0.773825C9.01061 0.500881 10.6916 0.36758 12.375 0.375319C14.4156 0.375319 16.1023 0.555037 17.4005 0.773825L17.5512 0.799499C18.6786 0.988148 19.6163 1.14554 20.3486 2.04748C20.8185 2.62682 20.9704 3.25305 21.005 3.95071L21.5542 4.13378C22.071 4.30569 22.5253 4.4575 22.8837 4.62494C23.2721 4.80577 23.6282 5.03795 23.9006 5.41637C24.173 5.79478 24.2812 6.20557 24.3303 6.63086C24.375 7.0249 24.375 7.50155 24.375 8.04852V8.20926C24.375 8.658 24.375 9.05427 24.3415 9.3858C24.3058 9.74412 24.2265 10.0935 24.029 10.4306C23.8291 10.7689 23.5624 11.0077 23.2665 11.2131C22.993 11.4029 22.647 11.596 22.2541 11.8137L19.3071 13.4512C18.7043 14.6356 17.8783 15.6916 16.7397 16.454C15.7629 17.1092 14.5942 17.5245 13.2122 17.6428V19.9099H14.8085C15.2601 19.91 15.6978 20.0665 16.047 20.3528C16.3963 20.6392 16.6355 21.0377 16.724 21.4805L16.9685 22.7006H19.0727C19.2947 22.7006 19.5077 22.7888 19.6647 22.9458C19.8217 23.1028 19.9099 23.3158 19.9099 23.5378C19.9099 23.7598 19.8217 23.9728 19.6647 24.1298C19.5077 24.2868 19.2947 24.375 19.0727 24.375H5.67733C5.45528 24.375 5.24234 24.2868 5.08533 24.1298C4.92832 23.9728 4.84012 23.7598 4.84012 23.5378C4.84012 23.3158 4.92832 23.1028 5.08533 22.9458C5.24234 22.7888 5.45528 22.7006 5.67733 22.7006H7.78151L8.02598 21.4805C8.1145 21.0377 8.35373 20.6392 8.70297 20.3528C9.05221 20.0665 9.48988 19.91 9.94151 19.9099H11.5378V17.6428C10.1558 17.5245 8.98709 17.1092 8.01035 16.4551C6.87286 15.6916 6.0457 14.6356 5.44291 13.4512L2.49593 11.8137C2.14904 11.6298 1.81116 11.4294 1.48347 11.2131C1.17432 11.013 0.914136 10.746 0.722163 10.4317C0.540434 10.1111 0.433226 9.75357 0.408489 9.3858C0.375 9.05427 0.375 8.658 0.375 8.20926V8.0474C0.375 7.50267 0.375 7.0249 0.419651 6.63086C0.468768 6.20557 0.57593 5.79366 0.849419 5.41637C1.12179 5.03795 1.47788 4.80577 1.86523 4.62382C2.22579 4.45638 2.679 4.30569 3.19584 4.13378L3.74505 3.95071C3.77965 3.25193 3.93147 2.62682 4.40142 2.04748C5.13481 1.14442 6.07137 0.987031 7.19993 0.799499L7.34951 0.773825ZM9.48942 22.7006H15.2606L15.082 21.8087C15.0693 21.7455 15.0352 21.6886 14.9853 21.6477C14.9355 21.6068 14.873 21.5844 14.8085 21.5843H9.94151C9.87702 21.5844 9.81453 21.6068 9.76468 21.6477C9.71482 21.6886 9.68066 21.7455 9.66802 21.8087L9.48942 22.7006ZM3.78188 5.70325C3.86226 7.39997 4.05314 9.27529 4.53091 11.0278L3.34095 10.3681C2.90672 10.1259 2.63435 9.97407 2.43788 9.83789C2.25705 9.71175 2.19788 9.63696 2.16551 9.58115C2.13202 9.52534 2.0963 9.43827 2.07398 9.21948C2.0509 8.87097 2.04271 8.52163 2.04942 8.17242V8.09094C2.04942 7.48927 2.05054 7.10862 2.08291 6.82063C2.11416 6.55496 2.16328 6.45561 2.20793 6.39533C2.25147 6.33394 2.3296 6.2558 2.57184 6.14306C2.83528 6.02027 3.19695 5.89859 3.76626 5.70771L3.78188 5.70325ZM20.2191 11.0278L21.409 10.3681C21.8433 10.1259 22.1157 9.97407 22.3121 9.83789C22.493 9.71175 22.5521 9.63696 22.5845 9.58115C22.618 9.52534 22.6537 9.43827 22.676 9.21948C22.6995 8.9806 22.7006 8.66916 22.7006 8.17242V8.09094C22.7006 7.48927 22.6995 7.10862 22.6671 6.82063C22.6358 6.55496 22.5867 6.45561 22.5421 6.39533C22.4985 6.33394 22.4204 6.2558 22.1782 6.14306C21.9147 6.02027 21.553 5.89859 20.9837 5.70771L20.9681 5.70325C20.8889 7.39997 20.6957 9.27529 20.2191 11.0278ZM12.375 2.04971C10.4327 2.04971 8.83975 2.2205 7.62858 2.42478C6.28123 2.6525 5.99881 2.73733 5.70188 3.10347C5.40942 3.46291 5.38151 3.80448 5.44068 5.31702C5.54114 7.83754 5.87379 10.559 6.903 12.6286C7.41202 13.6488 8.07733 14.4838 8.94356 15.0642C9.80309 15.6413 10.9138 16.003 12.375 16.003C13.8373 16.003 14.9469 15.6413 15.8076 15.0642C16.6738 14.4838 17.338 13.6488 17.8459 12.6274C18.8762 10.559 19.2089 7.83866 19.3082 5.3159C19.3696 3.80448 19.3417 3.46291 19.0492 3.10347C18.7523 2.73733 18.4688 2.6525 17.1214 2.42478C15.5525 2.16795 13.9648 2.04249 12.375 2.04971Z" fill="var(--fill-0, white)" stroke="var(--stroke-0, white)" stroke-width="0.75"/>
</svg>
