<svg preserveAspectRatio="none" width="100%" height="100%" overflow="visible" style="display: block;" viewBox="0 0 19 25" fill="none" xmlns="http://www.w3.org/2000/svg">
<path id="Vector" d="M0.5 3.5C0.500013 2.9734 0.638639 2.45609 0.901943 2.00004C1.16525 1.544 1.54395 1.1653 2 0.902V21.5C2 21.8978 2.15804 22.2794 2.43934 22.5607C2.72064 22.842 3.10218 23 3.5 23H15.5C15.8978 23 16.2794 22.842 16.5607 22.5607C16.842 22.2794 17 21.8978 17 21.5V3.5C17 3.10218 16.842 2.72064 16.5607 2.43934C16.2794 2.15804 15.8978 2 15.5 2H12.5V0.5H15.5C16.2956 0.5 17.0587 0.81607 17.6213 1.37868C18.1839 1.94129 18.5 2.70435 18.5 3.5V21.5C18.5 22.2956 18.1839 23.0587 17.6213 23.6213C17.0587 24.1839 16.2956 24.5 15.5 24.5H3.5C2.70435 24.5 1.94129 24.1839 1.37868 23.6213C0.81607 23.0587 0.5 22.2956 0.5 21.5V3.5ZM3.5 0.5V10.25C3.5 10.3893 3.53879 10.5258 3.61201 10.6443C3.68524 10.7628 3.79001 10.8585 3.91459 10.9208C4.03917 10.9831 4.17863 11.0095 4.31735 10.997C4.45608 10.9845 4.58857 10.9336 4.7 10.85L7.25 8.9375L9.8 10.85C9.91143 10.9336 10.0439 10.9845 10.1826 10.997C10.3214 11.0095 10.4608 10.9831 10.5854 10.9208C10.71 10.8585 10.8148 10.7628 10.888 10.6443C10.9612 10.5258 11 10.3893 11 10.25V0.5H3.5ZM5 8.75V2H9.5V8.75L7.7 7.4C7.57018 7.30263 7.41228 7.25 7.25 7.25C7.08772 7.25 6.92982 7.30263 6.8 7.4L5 8.75Z" fill="var(--fill-0, white)" stroke="var(--stroke-0, white)"/>
</svg>
