<svg preserveAspectRatio="none" width="100%" height="100%" overflow="visible" style="display: block;" viewBox="0 0 30 12.9551" fill="none" xmlns="http://www.w3.org/2000/svg">
<path id="Vector 1" d="M5.79234 4.85085C7.42713 1.11776 8.0426 -0.122017 8.31836 0.00931488H21.5799C21.6353 -0.0356469 22.1039 0.849353 24.106 4.85085C26.3127 6.33202 27.3952 6.49615 30 9.69238C29.9443 11.4314 29.5576 12.1268 28.2107 12.8499C27.0185 9.05521 25.4741 8.30855 21.2642 9.27137L20.1064 8.53462V9.69238L14.9492 11.5869L9.68662 9.69238L9.47612 8.53462L8.42361 9.27137C4.1073 8.22737 2.77464 9.32546 1.47707 12.9551C-0.229638 11.3531 -0.382747 10.3813 0.635061 8.53462L5.79234 4.85085Z" fill="var(--fill-0, white)"/>
</svg>
