<svg preserveAspectRatio="none" width="100%" height="100%" overflow="visible" style="display: block;" viewBox="0 0 18 25.4195" fill="none" xmlns="http://www.w3.org/2000/svg">
<path id="Vector" d="M9.08223 0.0781831C8.9137 0.00262297 8.72589 -0.0188457 8.54466 0.0167322C8.36343 0.05231 8.19768 0.143185 8.07023 0.27685C7.94601 0.40492 7.8559 0.562104 7.80814 0.734012C7.76039 0.90592 7.75652 1.08706 7.79689 1.26085C7.92889 1.84752 7.99823 2.46085 7.99823 3.08752C7.99823 4.52218 7.63689 5.52752 7.01423 6.36085C6.38223 7.20752 5.46756 7.89685 4.31156 8.67418C4.29357 8.68656 4.27662 8.70038 4.26089 8.71552L4.12089 8.85685C2.65908 9.79995 1.50191 11.1465 0.789437 12.7335C0.0769592 14.3206 -0.160297 16.0801 0.10638 17.7992C0.373058 19.5183 1.13224 21.1232 2.29205 22.4198C3.45186 23.7164 4.9626 24.6491 6.64144 25.105C8.32028 25.5609 10.0953 25.5205 11.7516 24.9886C13.4079 24.4567 14.8746 23.4562 15.9742 22.1082C17.0738 20.7601 17.7591 19.1222 17.9472 17.3928C18.1354 15.6634 17.8182 13.9165 17.0342 12.3635C17.0095 12.3145 16.9731 12.2724 16.9281 12.2409C16.8832 12.2094 16.8312 12.1894 16.7767 12.1828C16.7223 12.1762 16.667 12.1832 16.6159 12.2031C16.5647 12.223 16.5193 12.2552 16.4836 12.2968L16.2062 12.6182C15.0356 13.9862 14.0902 15.0915 12.1529 15.5848C12.0702 15.6048 12.0196 15.5902 11.9836 15.5675C11.9261 15.5272 11.8834 15.4691 11.8622 15.4022C11.8273 15.3098 11.818 15.2098 11.8354 15.1126C11.8528 15.0154 11.8961 14.9247 11.9609 14.8502C12.9969 13.7262 13.7329 12.2008 13.9956 10.0315C14.4889 5.96752 12.6422 1.63952 9.08223 0.0781831Z" fill="var(--fill-0, #F5A623)"/>
</svg>
