<svg preserveAspectRatio="none" width="100%" height="100%" overflow="visible" style="display: block;" viewBox="0 0 24.7503 25.2213" fill="none" xmlns="http://www.w3.org/2000/svg">
<path id="Vector" d="M23.3752 19.7209V12.0925C23.3752 11.3577 23.3745 10.9902 23.2852 10.6483C23.206 10.3453 23.0761 10.0586 22.9002 9.79952C22.7017 9.50716 22.4258 9.26472 21.8729 8.7809L15.2729 3.0059C14.2463 2.10764 13.733 1.65873 13.1553 1.4879C12.6463 1.33737 12.1038 1.33737 11.5947 1.4879C11.0175 1.6586 10.505 2.10708 9.47992 3.00399L2.87773 8.7809C2.3248 9.26472 2.04897 9.50716 1.85051 9.79952C1.67463 10.0586 1.54367 10.3453 1.4645 10.6483C1.37517 10.9902 1.37517 11.3577 1.37517 12.0925V19.7209C1.37517 21.0022 1.37517 21.6426 1.5845 22.148C1.86361 22.8218 2.3986 23.3578 3.07243 23.6369C3.5778 23.8463 4.21847 23.8463 5.49981 23.8463C6.78115 23.8463 7.42253 23.8463 7.9279 23.6369C8.60173 23.3578 9.13659 22.822 9.41569 22.1481C9.62503 21.6428 9.62517 21.0021 9.62517 19.7207V18.3457C9.62517 16.827 10.8564 15.5957 12.3752 15.5957C13.8939 15.5957 15.1252 16.827 15.1252 18.3457V19.7207C15.1252 21.0021 15.1252 21.6428 15.3345 22.1481C15.6136 22.822 16.1486 23.3578 16.8224 23.6369C17.3278 23.8463 17.9685 23.8463 19.2498 23.8463C20.5312 23.8463 21.1725 23.8463 21.6779 23.6369C22.3517 23.3578 22.8866 22.8218 23.1657 22.148C23.375 21.6426 23.3752 21.0022 23.3752 19.7209Z" stroke="var(--stroke-0, #4A90E2)" stroke-width="2.75" stroke-linecap="round" stroke-linejoin="round"/>
</svg>
