<svg preserveAspectRatio="none" width="100%" height="100%" overflow="visible" style="display: block;" viewBox="0 0 22.625 22.625" fill="none" xmlns="http://www.w3.org/2000/svg">
<path id="Vector" d="M7.875 3.75H3.75C3.02065 3.75 2.32118 4.03973 1.80546 4.55546C1.28973 5.07118 1 5.77065 1 6.5V18.875C1 19.6043 1.28973 20.3038 1.80546 20.8195C2.32118 21.3353 3.02065 21.625 3.75 21.625H16.125C16.8543 21.625 17.5538 21.3353 18.0695 20.8195C18.5853 20.3038 18.875 19.6043 18.875 18.875V14.75M13.375 5.125C13.375 6.21902 13.8096 7.26823 14.5832 8.04182C15.3568 8.8154 16.406 9.25 17.5 9.25C18.594 9.25 19.6432 8.8154 20.4168 8.04182C21.1904 7.26823 21.625 6.21902 21.625 5.125C21.625 4.03098 21.1904 2.98177 20.4168 2.20818C19.6432 1.4346 18.594 1 17.5 1C16.406 1 15.3568 1.4346 14.5832 2.20818C13.8096 2.98177 13.375 4.03098 13.375 5.125Z" stroke="var(--stroke-0, white)" stroke-width="2" stroke-linecap="round" stroke-linejoin="round"/>
</svg>
