<svg preserveAspectRatio="none" width="100%" height="100%" overflow="visible" style="display: block;" viewBox="0 0 29.425 25.6536" fill="none" xmlns="http://www.w3.org/2000/svg">
<path id="Vector" d="M14.7125 7.16965C15.6554 3.44772 19.2164 1.54727 26.9696 1.51251C27.0936 1.51204 27.2164 1.53611 27.331 1.58333C27.4456 1.63054 27.5497 1.69998 27.6374 1.78762C27.725 1.87527 27.7945 1.97939 27.8417 2.094C27.8889 2.2086 27.913 2.33141 27.9125 2.45536V19.4268C27.9125 19.6768 27.8132 19.9167 27.6363 20.0935C27.4595 20.2703 27.2197 20.3696 26.9696 20.3696C19.4268 20.3696 16.5128 21.8906 14.7125 24.1411M14.7125 7.16965C13.7696 3.44772 10.2086 1.54727 2.45536 1.51251C2.33141 1.51204 2.2086 1.53611 2.094 1.58333C1.97939 1.63054 1.87527 1.69998 1.78762 1.78762C1.69998 1.87527 1.63054 1.97939 1.58333 2.094C1.53611 2.2086 1.51204 2.33141 1.51251 2.45536V19.3131C1.51251 19.8953 1.87315 20.3696 2.45536 20.3696C9.99822 20.3696 12.9228 21.9018 14.7125 24.1411M14.7125 7.16965V24.1411" stroke="var(--stroke-0, #A4A4A4)" stroke-width="3.025" stroke-linecap="round" stroke-linejoin="round"/>
</svg>
