<svg preserveAspectRatio="none" width="100%" height="100%" overflow="visible" style="display: block;" viewBox="0 0 19.5386 10.8746" fill="none" xmlns="http://www.w3.org/2000/svg">
<path id="Exclude" d="M0.113197 7.12583C0.0357231 7.39915 0.00438862 7.68341 0.0301892 7.96763L5.68742 10.0633L3.95695 10.6952C2.42803 11.2532 0.735685 10.4663 0.17765 8.93736C-0.0432567 8.33191 -0.0503518 7.70176 0.113197 7.12583ZM16.9755 5.96763L5.71378 10.0731L5.68742 10.0633L16.9657 5.94712C16.9687 5.95408 16.9726 5.96064 16.9755 5.96763ZM1.81925 5.2313C1.03871 5.54371 0.374235 6.26155 0.125892 7.08384C0.384028 6.22366 1.02788 5.49067 1.93644 5.15904L6.1171 3.63267L1.81925 5.2313ZM15.58 0.179544C17.1089 -0.378471 18.8012 0.407595 19.3593 1.93638C19.9173 3.46532 19.1294 5.15763 17.6005 5.71568L16.9657 5.94712C16.0252 3.72395 13.4431 3.35639 10.0673 2.19126L15.58 0.179544ZM10.0673 2.19126L6.1171 3.63267L10.0292 2.17857C10.0419 2.18294 10.0547 2.18691 10.0673 2.19126Z" fill="var(--fill-0, white)"/>
</svg>
