<svg preserveAspectRatio="none" width="100%" height="100%" overflow="visible" style="display: block;" viewBox="0 0 6.75 9.53233" fill="none" xmlns="http://www.w3.org/2000/svg">
<path id="Vector" d="M3.40583 0.0293187C3.34264 0.000983613 3.27221 -0.00706712 3.20425 0.00627456C3.13629 0.0196162 3.07413 0.0536944 3.02633 0.103819C2.97975 0.151845 2.94596 0.210789 2.92805 0.275254C2.91015 0.33972 2.9087 0.407647 2.92383 0.472819C2.97333 0.692819 2.99933 0.922819 2.99933 1.15782C2.99933 1.69582 2.86383 2.07282 2.63033 2.38532C2.39333 2.70282 2.05033 2.96132 1.61683 3.25282C1.61009 3.25746 1.60373 3.26264 1.59783 3.26832L1.54533 3.32132C0.997154 3.67498 0.563218 4.17994 0.296039 4.77508C0.0288597 5.37022 -0.0601113 6.03004 0.0398927 6.6747C0.139897 7.31935 0.424589 7.9212 0.859519 8.40743C1.29445 8.89366 1.86097 9.24341 2.49054 9.41437C3.1201 9.58533 3.78572 9.57017 4.40685 9.37072C5.02798 9.17127 5.57799 8.79609 5.99033 8.29056C6.40267 7.78504 6.65966 7.17084 6.73021 6.5223C6.80076 5.87376 6.68183 5.21868 6.38783 4.63632C6.37856 4.61795 6.36489 4.60215 6.34805 4.59033C6.3312 4.57851 6.3117 4.57104 6.29127 4.56856C6.27085 4.56609 6.25012 4.5687 6.23094 4.57616C6.21177 4.58362 6.19472 4.59569 6.18133 4.61132L6.07733 4.73182C5.63833 5.24482 5.28383 5.65932 4.55733 5.84432C4.52633 5.85182 4.50733 5.84632 4.49383 5.83782C4.47228 5.8227 4.45629 5.80092 4.44833 5.77582C4.43523 5.74119 4.43176 5.70366 4.43827 5.66721C4.44479 5.63077 4.46105 5.59677 4.48533 5.56882C4.87383 5.14732 5.14983 4.57532 5.24833 3.76182C5.43333 2.23782 4.74083 0.614819 3.40583 0.0293187Z" fill="var(--fill-0, #F5A623)"/>
</svg>
