<svg preserveAspectRatio="none" width="100%" height="100%" overflow="visible" style="display: block;" viewBox="0 0 16.0276 19.9761" fill="none" xmlns="http://www.w3.org/2000/svg">
<path id="Vector" d="M6.75243 9.71711C7.22243 10.9471 7.17243 12.2271 5.76243 12.7371C2.86243 13.8071 2.21243 10.9971 2.17243 10.8571L6.75243 9.71711ZM1.72243 8.90711L6.04243 7.83711C5.85243 6.78711 6.14243 5.73711 6.14243 4.49711C6.14243 2.81711 4.81243 -0.472888 2.69243 0.0571123C0.272427 0.657112 -0.0775729 3.34711 0.0124271 4.64711C0.132427 5.94711 1.65243 8.72711 1.72243 8.90711ZM13.8624 17.8471C13.8324 17.9971 13.1724 20.7971 10.2724 19.7371C8.87243 19.2171 8.81243 17.9371 9.28243 16.7071L13.8624 17.8471ZM16.0124 11.6471C16.1124 10.3471 15.7724 7.64711 13.3424 7.04711C11.2324 6.49711 9.90243 9.80711 9.90243 11.4971C9.90243 12.7271 10.1824 13.7771 10.0124 14.8271L14.3124 15.8971C14.3924 15.7171 15.9024 12.9371 16.0124 11.6471Z" fill="var(--fill-0, black)"/>
</svg>
