<svg preserveAspectRatio="none" width="100%" height="100%" overflow="visible" style="display: block;" viewBox="0 0 17.5 21.25" fill="none" xmlns="http://www.w3.org/2000/svg">
<g id="Vector">
<path d="M3.75 6.25C3.75 9.01142 5.98858 11.25 8.75 11.25C11.5114 11.25 13.75 9.01142 13.75 6.25C13.75 3.48858 11.5114 1.25 8.75 1.25C5.98858 1.25 3.75 3.48858 3.75 6.25Z" fill="var(--fill-0, white)"/>
<path d="M3.75 6.25C3.75 9.01142 5.98858 11.25 8.75 11.25C11.5114 11.25 13.75 9.01142 13.75 6.25C13.75 3.48858 11.5114 1.25 8.75 1.25C5.98858 1.25 3.75 3.48858 3.75 6.25Z" fill="var(--fill-1, white)" fill-opacity="0.2"/>
<path d="M16.25 20C16.25 17.2386 12.8921 15 8.75 15C4.60786 15 1.25 17.2386 1.25 20H8.75H16.25Z" fill="var(--fill-0, white)"/>
<path d="M16.25 20C16.25 17.2386 12.8921 15 8.75 15C4.60786 15 1.25 17.2386 1.25 20H8.75H16.25Z" fill="var(--fill-1, white)" fill-opacity="0.2"/>
<path d="M3.75 6.25C3.75 9.01142 5.98858 11.25 8.75 11.25C11.5114 11.25 13.75 9.01142 13.75 6.25C13.75 3.48858 11.5114 1.25 8.75 1.25C5.98858 1.25 3.75 3.48858 3.75 6.25Z" stroke="var(--stroke-0, white)" stroke-width="2.5" stroke-linecap="round" stroke-linejoin="round"/>
<path d="M16.25 20C16.25 17.2386 12.8921 15 8.75 15C4.60786 15 1.25 17.2386 1.25 20H8.75H16.25Z" stroke="var(--stroke-0, white)" stroke-width="2.5" stroke-linecap="round" stroke-linejoin="round"/>
</g>
</svg>
