<svg preserveAspectRatio="none" width="100%" height="100%" overflow="visible" style="display: block;" viewBox="0 0 20.2045 17.711" fill="none" xmlns="http://www.w3.org/2000/svg">
<path id="Vector" d="M10.1023 5.11526C10.7256 2.65448 13.0801 1.39799 18.2062 1.375C18.2881 1.3747 18.3693 1.39061 18.4451 1.42183C18.5209 1.45304 18.5897 1.49895 18.6476 1.5569C18.7056 1.61485 18.7515 1.68369 18.7827 1.75946C18.8139 1.83523 18.8299 1.91643 18.8295 1.99838V13.2192C18.8295 13.3845 18.7639 13.543 18.647 13.6599C18.5301 13.7769 18.3715 13.8425 18.2062 13.8425C13.2192 13.8425 11.2925 14.8481 10.1023 16.336M10.1023 5.11526C9.4789 2.65448 7.12448 1.39799 1.99838 1.375C1.91643 1.3747 1.83523 1.39061 1.75946 1.42183C1.68369 1.45304 1.61485 1.49895 1.5569 1.5569C1.49895 1.61485 1.45304 1.68369 1.42183 1.75946C1.39061 1.83523 1.3747 1.91643 1.375 1.99838V13.144C1.375 13.5289 1.61345 13.8425 1.99838 13.8425C6.98539 13.8425 8.91903 14.8555 10.1023 16.336M10.1023 5.11526V16.336" stroke="var(--stroke-0, #A8D5BA)" stroke-width="2.75" stroke-linecap="round" stroke-linejoin="round"/>
</svg>
