<svg preserveAspectRatio="none" width="100%" height="100%" overflow="visible" style="display: block;" viewBox="0 0 17.5126 13.3012" fill="none" xmlns="http://www.w3.org/2000/svg">
<path id="Vector" d="M4.03384 4.64067L1.31509 3.73442C0.849256 3.58075 0.460154 3.25419 0.228018 2.82207C-0.00411727 2.38996 -0.061585 1.88524 0.0674661 1.412C0.196517 0.938757 0.502247 0.53308 0.921608 0.278625C1.34097 0.0241698 1.84198 -0.0596613 2.32134 0.0444198L4.69384 0.55317L4.95634 0.60817C7.5508 1.14538 10.2296 1.12663 12.8163 0.55317L15.1876 0.0444198C15.6673 -0.0607291 16.169 0.0224169 16.5891 0.276676C17.0093 0.530935 17.3157 0.936874 17.445 1.41061C17.5743 1.88434 17.5168 2.38966 17.2841 2.82214C17.0515 3.25462 16.6616 3.58121 16.1951 3.73442L13.4763 4.64067C13.1476 4.75067 12.9838 4.80567 12.8601 4.88192C12.6541 5.00893 12.4894 5.193 12.386 5.41178C12.2826 5.63056 12.245 5.87465 12.2776 6.11442C12.2976 6.25817 12.3601 6.41942 12.4838 6.74317L14.0426 10.7957C14.2103 11.2291 14.2078 11.7099 14.0358 12.1416C13.8638 12.5733 13.5348 12.924 13.115 13.1233C12.6952 13.3226 12.2156 13.3558 11.7723 13.2162C11.329 13.0766 10.9549 12.7746 10.7251 12.3707L8.75509 8.92317L6.78509 12.3694C6.55523 12.7733 6.18115 13.0754 5.73788 13.215C5.29462 13.3546 4.81496 13.3214 4.39515 13.1221C3.97533 12.9227 3.64641 12.5721 3.47438 12.1404C3.30234 11.7086 3.29991 11.2278 3.46759 10.7944L5.02634 6.74317C5.15134 6.41942 5.21259 6.25817 5.23259 6.11442C5.26521 5.87465 5.22754 5.63056 5.12414 5.41178C5.02074 5.193 4.85606 5.00893 4.65009 4.88192C4.52634 4.80567 4.36259 4.75067 4.03384 4.64067Z" fill="var(--fill-0, white)"/>
</svg>
