<svg preserveAspectRatio="none" width="100%" height="100%" overflow="visible" style="display: block;" viewBox="0 0 19 24" fill="none" xmlns="http://www.w3.org/2000/svg">
<path id="Vector" d="M10.3467 17.6968C10.5739 17.4635 10.6875 17.1747 10.6875 16.8304V11.9696C10.6875 11.6253 10.5735 11.3369 10.3455 11.1044C10.1175 10.8719 9.83567 10.7552 9.5 10.7544C9.16433 10.7536 8.8825 10.8703 8.6545 11.1044C8.4265 11.3385 8.3125 11.6269 8.3125 11.9696V16.8304C8.3125 17.1747 8.4265 17.4635 8.6545 17.6968C8.8825 17.9301 9.16433 18.0464 9.5 18.0456C9.83567 18.0448 10.1179 17.9293 10.3467 17.6968ZM10.3467 7.97408C10.5739 7.74157 10.6875 7.45316 10.6875 7.10886C10.6875 6.76456 10.5735 6.47615 10.3455 6.24365C10.1175 6.01114 9.83567 5.89448 9.5 5.89367C9.16433 5.89286 8.8825 6.00952 8.6545 6.24365C8.4265 6.47777 8.3125 6.76618 8.3125 7.10886C8.3125 7.45154 8.4265 7.74035 8.6545 7.97529C8.8825 8.21023 9.16433 8.32648 9.5 8.32405C9.83567 8.32162 10.1179 8.20496 10.3467 7.97408ZM9.11406 23.9696C8.99531 23.9494 8.87656 23.919 8.75781 23.8785C6.08594 22.9671 3.95833 21.2808 2.375 18.8196C0.791667 16.3585 0 13.7106 0 10.8759V5.13418C0 4.62785 0.143687 4.17215 0.431062 3.76709C0.718437 3.36203 1.08933 3.06835 1.54375 2.88608L8.66875 0.151899C8.94583 0.0506329 9.22292 0 9.5 0C9.77708 0 10.0542 0.0506329 10.3312 0.151899L17.4562 2.88608C17.9115 3.06835 18.2827 3.36203 18.5701 3.76709C18.8575 4.17215 19.0008 4.62785 19 5.13418V10.8759C19 13.7114 18.2083 16.3597 16.625 18.8209C15.0417 21.282 12.9141 22.9679 10.2422 23.8785C10.1234 23.919 10.0047 23.9494 9.88594 23.9696C9.76719 23.9899 9.63854 24 9.5 24C9.36146 24 9.23281 23.9899 9.11406 23.9696Z" fill="var(--fill-0, white)"/>
</svg>
