<svg preserveAspectRatio="none" width="100%" height="100%" overflow="visible" style="display: block;" viewBox="0 0 22.5003 22.9284" fill="none" xmlns="http://www.w3.org/2000/svg">
<path id="Vector" d="M21.2502 17.9281V10.9931C21.2502 10.3252 21.2496 9.99107 21.1684 9.68027C21.0964 9.40484 20.9782 9.14419 20.8184 8.90866C20.6379 8.64287 20.3871 8.42247 19.8844 7.98264L13.8844 2.73264C12.9512 1.91603 12.4845 1.50794 11.9594 1.35263C11.4966 1.21579 11.0034 1.21579 10.5407 1.35263C10.0159 1.50782 9.54996 1.91553 8.61811 2.7309L2.61612 7.98264C2.11345 8.42247 1.8627 8.64287 1.68228 8.90866C1.52239 9.14419 1.40334 9.40484 1.33137 9.68027C1.25015 9.99107 1.25015 10.3252 1.25015 10.9931V17.9281C1.25015 19.0929 1.25015 19.6751 1.44045 20.1345C1.69419 20.7471 2.18055 21.2344 2.79312 21.4881C3.25255 21.6784 3.83498 21.6784 4.99983 21.6784C6.16468 21.6784 6.74775 21.6784 7.20718 21.4881C7.81975 21.2344 8.30599 20.7472 8.55972 20.1347C8.75002 19.6752 8.75015 19.0928 8.75015 17.9279V16.678C8.75015 15.2972 9.86944 14.178 11.2502 14.178C12.6309 14.178 13.7502 15.2972 13.7502 16.678V17.9279C13.7502 19.0928 13.7502 19.6752 13.9405 20.1347C14.1942 20.7472 14.6806 21.2344 15.2931 21.4881C15.7525 21.6784 16.335 21.6784 17.4998 21.6784C18.6647 21.6784 19.2478 21.6784 19.7072 21.4881C20.3198 21.2344 20.806 20.7471 21.0597 20.1345C21.25 19.6751 21.2502 19.0929 21.2502 17.9281Z" stroke="var(--stroke-0, white)" stroke-width="2.5" stroke-linecap="round" stroke-linejoin="round"/>
</svg>
