<svg preserveAspectRatio="none" width="100%" height="100%" overflow="visible" style="display: block;" viewBox="0 0 14 11.9972" fill="none" xmlns="http://www.w3.org/2000/svg">
<path id="Vector" d="M14 3.875C14 8.25 7.51312 11.7913 7.23687 11.9375C7.16406 11.9767 7.08268 11.9972 7 11.9972C6.91732 11.9972 6.83594 11.9767 6.76312 11.9375C6.55375 11.825 2.79125 9.76938 0.970625 6.88188C0.947141 6.84405 0.934182 6.80064 0.933089 6.75614C0.931996 6.71163 0.942807 6.66764 0.964407 6.62871C0.986006 6.58978 1.01761 6.55733 1.05595 6.5347C1.09429 6.51207 1.13798 6.50009 1.1825 6.5H3.5C3.58234 6.50005 3.66342 6.47977 3.73603 6.44096C3.80865 6.40214 3.87055 6.34599 3.91625 6.2775L4.5 5.4025L6.08375 7.7775C6.14443 7.86851 6.23329 7.93711 6.3367 7.97279C6.4401 8.00846 6.55236 8.00924 6.65625 7.975C6.76646 7.93768 6.86076 7.86409 6.92375 7.76625L7.7675 6.5H9C9.06854 6.50015 9.13639 6.48621 9.19931 6.45903C9.26224 6.43186 9.31891 6.39204 9.3658 6.34204C9.41269 6.29205 9.4488 6.23294 9.47189 6.1684C9.49497 6.10387 9.50454 6.03527 9.5 5.96688C9.48881 5.83836 9.42945 5.71882 9.33383 5.63223C9.2382 5.54564 9.11337 5.49841 8.98438 5.5H7.5C7.41766 5.49995 7.33658 5.52023 7.26397 5.55904C7.19135 5.59786 7.12945 5.65401 7.08375 5.7225L6.5 6.5975L4.91625 4.2225C4.85553 4.13136 4.76657 4.06267 4.66303 4.02699C4.55949 3.99131 4.4471 3.99061 4.34312 4.025C4.23319 4.06253 4.13915 4.13609 4.07625 4.23375L3.2325 5.5H0.470625C0.417195 5.50015 0.365123 5.48317 0.322044 5.45157C0.278965 5.41996 0.247145 5.37539 0.23125 5.32438C0.0805155 4.85592 0.00252535 4.36711 0 3.875C0.00115796 2.84764 0.409788 1.86269 1.13624 1.13624C1.86269 0.409788 2.84764 0.00115796 3.875 0C5.16562 0 6.29562 0.555 7 1.49312C7.70438 0.555 8.83438 0 10.125 0C11.1524 0.00115796 12.1373 0.409788 12.8638 1.13624C13.5902 1.86269 13.9988 2.84764 14 3.875Z" fill="var(--fill-0, black)"/>
</svg>
