<svg preserveAspectRatio="none" width="100%" height="100%" overflow="visible" style="display: block;" viewBox="0 0 21.0776 22.1574" fill="none" xmlns="http://www.w3.org/2000/svg">
<path id="Vector" d="M1 18.4126V3.74592C1 2.53652 1 1.93114 1.2545 1.57331C1.47663 1.261 1.819 1.05595 2.1991 1.00693C2.63444 0.95078 3.16839 1.23555 4.23474 1.80427L17.9847 9.1376L17.9897 9.13982C19.1682 9.76833 19.7577 10.0827 19.9511 10.5018C20.1197 10.8673 20.1197 11.2893 19.9511 11.6549C19.7574 12.0745 19.1665 12.3902 17.9847 13.0205L4.23474 20.3538C3.16762 20.9229 2.6346 21.2066 2.1991 21.1504C1.819 21.1014 1.47663 20.8964 1.2545 20.5841C1 20.2262 1 19.622 1 18.4126Z" stroke="var(--stroke-0, white)" stroke-width="2" stroke-linecap="round" stroke-linejoin="round"/>
</svg>
