<svg preserveAspectRatio="none" width="100%" height="100%" overflow="visible" style="display: block;" viewBox="0 0 20 19.9993" fill="none" xmlns="http://www.w3.org/2000/svg">
<path id="Vector" fill-rule="evenodd" clip-rule="evenodd" d="M9.99571 0.000715198C9.02573 -0.0128513 8.06272 0.166709 7.16265 0.528963C6.26257 0.891218 5.44337 1.42894 4.75265 2.1109C4.06193 2.79285 3.51345 3.60543 3.13909 4.50143C2.76473 5.39743 2.57195 6.35898 2.57195 7.33022C2.57195 8.30145 2.76473 9.263 3.13909 10.159C3.51345 11.055 4.06193 11.8676 4.75265 12.5495C5.44337 13.2315 6.26257 13.7692 7.16265 14.1315C8.06272 14.4937 9.02573 14.6733 9.99571 14.6597C11.9375 14.6597 13.7997 13.8874 15.1728 12.5127C16.5458 11.1381 17.3172 9.27359 17.3172 7.3295C17.3172 5.38541 16.5458 3.52094 15.1728 2.14626C13.7997 0.771573 11.9375 0.000715198 9.99571 0.000715198ZM10.2857 3.4663L11.2614 5.43151C11.2826 5.48144 11.3169 5.52469 11.3607 5.55668C11.4045 5.58866 11.4561 5.60818 11.51 5.61316L13.6757 5.94212C13.7378 5.95006 13.7962 5.97555 13.8443 6.0156C13.8923 6.05564 13.928 6.10858 13.947 6.1682C13.9661 6.22782 13.9677 6.29165 13.9518 6.35218C13.9359 6.41271 13.9031 6.46745 13.8572 6.50995L12.26 8.03177C12.236 8.07715 12.2234 8.12773 12.2234 8.17909C12.2234 8.23045 12.236 8.28103 12.26 8.32641L12.5657 10.4833C12.5786 10.5454 12.5733 10.6099 12.5503 10.669C12.5274 10.7282 12.4879 10.7794 12.4366 10.8166C12.3853 10.8538 12.3243 10.8753 12.2611 10.8786C12.1978 10.8819 12.1349 10.8668 12.08 10.8351L10.1514 9.81391C10.1014 9.79119 10.0471 9.77944 9.99214 9.77944C9.9372 9.77944 9.88289 9.79119 9.83286 9.81391L7.90427 10.8351C7.84937 10.8668 7.7865 10.8819 7.72323 10.8786C7.65997 10.8753 7.599 10.8538 7.54767 10.8166C7.49635 10.7794 7.45685 10.7282 7.43394 10.669C7.41103 10.6099 7.40569 10.5454 7.41855 10.4833L7.77998 8.32641C7.79572 8.27642 7.79874 8.22328 7.78876 8.17183C7.77878 8.12038 7.75612 8.07223 7.72284 8.03177L6.12425 6.4985C6.08131 6.45558 6.05109 6.4016 6.03692 6.34253C6.02275 6.28346 6.0252 6.22162 6.04398 6.16385C6.06277 6.10609 6.09717 6.05467 6.14336 6.01528C6.18955 5.97589 6.24573 5.95007 6.30568 5.94069L8.47284 5.6246C8.5268 5.61962 8.5784 5.6001 8.62217 5.56812C8.66593 5.53614 8.70023 5.49288 8.72142 5.44295L9.69714 3.47774C9.72311 3.42196 9.76419 3.3746 9.81571 3.34103C9.86723 3.30746 9.92712 3.28903 9.98858 3.28784C10.05 3.28664 10.1106 3.30274 10.1634 3.33428C10.2162 3.36583 10.259 3.41157 10.2871 3.4663H10.2857ZM17.5715 12.3884C16.3388 14.2343 14.478 15.5686 12.3357 16.1429L14.3529 19.6414C14.4235 19.7639 14.5287 19.8627 14.6554 19.9254C14.782 19.988 14.9244 20.0116 15.0645 19.9932C15.2045 19.9749 15.336 19.9153 15.4423 19.8221C15.5485 19.729 15.6248 19.6063 15.6615 19.4698L16.3901 16.7537L19.1015 17.4817C19.2379 17.5181 19.3821 17.5133 19.5158 17.4677C19.6494 17.4222 19.7666 17.338 19.8526 17.2258C19.9385 17.1137 19.9893 16.9785 19.9985 16.8374C20.0077 16.6964 19.975 16.5557 19.9044 16.4333L17.5715 12.3884ZM7.66284 16.1444C5.51922 15.5745 3.65669 14.2417 2.42422 12.3956L0.0956234 16.4333C0.0250481 16.5557 -0.00769684 16.6964 0.00152549 16.8374C0.0107478 16.9785 0.0615236 17.1137 0.147438 17.2258C0.233353 17.338 0.350551 17.4222 0.484228 17.4677C0.617905 17.5133 0.762062 17.5181 0.898488 17.4817L3.61137 16.7537L4.33852 19.4698C4.37519 19.6063 4.45147 19.729 4.55774 19.8221C4.66401 19.9153 4.79549 19.9749 4.93555 19.9932C5.07561 20.0116 5.21796 19.988 5.34462 19.9254C5.47127 19.8627 5.57654 19.7639 5.6471 19.6414L7.66284 16.1444Z" fill="var(--fill-0, white)"/>
</svg>
