<svg preserveAspectRatio="none" width="100%" height="100%" overflow="visible" style="display: block;" viewBox="0 0 25 10.5938" fill="none" xmlns="http://www.w3.org/2000/svg">
<path id="Vector" d="M12.5 10.5938C19.4037 10.5938 25 8.075 25 4.96875C25 2.81625 22.3125 0.94625 18.3675 0L19.5375 3.0425C20.4737 5.4775 18.6775 8.0925 16.0687 8.0925C15.4137 8.09295 14.7702 7.92007 14.2036 7.59142C13.637 7.26277 13.1674 6.79005 12.8425 6.22125L12.5 5.62125L12.1575 6.22125C11.833 6.78992 11.3639 7.26265 10.7977 7.5915C10.2315 7.92035 9.58849 8.09363 8.93375 8.09375C6.325 8.09375 4.5275 5.4775 5.46375 3.0425L6.63375 0C2.68625 0.94625 0 2.81625 0 4.96875C0 8.075 5.59625 10.5938 12.5 10.5938Z" fill="var(--fill-0, white)"/>
</svg>
