<svg preserveAspectRatio="none" width="100%" height="100%" overflow="visible" style="display: block;" viewBox="0 0 26.75 23.75" fill="none" xmlns="http://www.w3.org/2000/svg">
<path id="Vector" d="M13.375 6.625C14.2321 3.17094 17.4695 1.40727 24.5179 1.37501C24.6305 1.37457 24.7422 1.39691 24.8464 1.44073C24.9506 1.48455 25.0452 1.54898 25.1249 1.63032C25.2046 1.71166 25.2677 1.80829 25.3106 1.91465C25.3535 2.021 25.3754 2.13498 25.375 2.25001V18C25.375 18.2321 25.2847 18.4546 25.1239 18.6187C24.9632 18.7828 24.7452 18.875 24.5179 18.875C17.6607 18.875 15.0116 20.2865 13.375 22.375M13.375 6.625C12.5179 3.17094 9.28054 1.40727 2.23215 1.37501C2.11947 1.37457 2.00782 1.39691 1.90363 1.44073C1.79945 1.48455 1.70479 1.54898 1.62511 1.63032C1.54543 1.71166 1.48231 1.80829 1.43939 1.91465C1.39646 2.021 1.37458 2.13498 1.37501 2.25001V17.8945C1.37501 18.4348 1.70286 18.875 2.23215 18.875C9.08929 18.875 11.748 20.2969 13.375 22.375M13.375 6.625V22.375" stroke="var(--stroke-0, white)" stroke-width="2.75" stroke-linecap="round" stroke-linejoin="round"/>
</svg>
