<svg preserveAspectRatio="none" width="100%" height="100%" overflow="visible" style="display: block;" viewBox="0 0 24 24" fill="none" xmlns="http://www.w3.org/2000/svg">
<path id="Vector" fill-rule="evenodd" clip-rule="evenodd" d="M12 2.13662C11.0432 2.13662 10.0959 2.32513 9.21193 2.69138C8.328 3.05763 7.52485 3.59445 6.84832 4.27119C6.17179 4.94794 5.63514 5.75135 5.26901 6.63555C4.90287 7.51976 4.71443 8.46745 4.71443 9.42451C4.71443 10.3816 4.90287 11.3293 5.26901 12.2135C5.63514 13.0977 6.17179 13.9011 6.84832 14.5778C7.52485 15.2546 8.328 15.7914 9.21193 16.1576C10.0959 16.5239 11.0432 16.7124 12 16.7124C13.9323 16.7124 15.7854 15.9446 17.1517 14.5778C18.518 13.2111 19.2856 11.3574 19.2856 9.42451C19.2856 7.49164 18.518 5.63794 17.1517 4.27119C15.7854 2.90445 13.9323 2.13662 12 2.13662ZM2.57161 9.42451C2.57265 7.99418 2.8989 6.58281 3.52568 5.29722C4.15246 4.01162 5.06333 2.88547 6.1894 2.00397C7.31546 1.12247 8.6272 0.508725 10.0254 0.209163C11.4235 -0.0903983 12.8715 -0.067924 14.2597 0.274885C15.6479 0.617695 16.94 1.27186 18.0382 2.18788C19.1363 3.1039 20.0119 4.25778 20.5985 5.56221C21.1851 6.86664 21.4674 8.28744 21.4241 9.71712C21.3807 11.1468 21.0129 12.5479 20.3484 13.8144L23.8781 19.7013C23.9602 19.8383 24.0024 19.9955 23.9999 20.1552C23.9974 20.315 23.9504 20.4708 23.8642 20.6052C23.7779 20.7397 23.6558 20.8473 23.5117 20.916C23.3675 20.9848 23.2071 21.0119 23.0484 20.9942L19.7844 20.6324L18.3376 23.527C18.2681 23.6656 18.1623 23.7828 18.0315 23.866C17.9007 23.9493 17.7498 23.9955 17.5948 23.9997C17.4398 24.0039 17.2866 23.966 17.1514 23.89C17.0163 23.814 16.9043 23.7028 16.8273 23.5682L14.0125 18.6415C12.6865 18.9314 11.3135 18.9314 9.98747 18.6415L7.17266 23.5682C7.09572 23.7028 6.98371 23.814 6.84856 23.89C6.71342 23.966 6.5602 24.0039 6.40522 23.9997C6.25025 23.9955 6.09932 23.9493 5.96851 23.866C5.8377 23.7828 5.73191 23.6656 5.66241 23.527L4.21558 20.6324L0.951641 20.9942C0.79293 21.0119 0.632456 20.9848 0.48831 20.916C0.344165 20.8473 0.22208 20.7397 0.13582 20.6052C0.049559 20.4708 0.00255302 20.315 0.000101081 20.1552C-0.00235086 19.9955 0.0398487 19.8383 0.121942 19.7013L3.6533 13.8144C2.94226 12.4605 2.57103 10.9539 2.57161 9.42451ZM11.976 4.13779C12.1298 4.1348 12.2813 4.17498 12.4134 4.25379C12.5456 4.3326 12.6529 4.44687 12.7234 4.58364L12.7268 4.58878L13.8908 6.93119L16.4725 7.32217C16.627 7.34299 16.7723 7.40726 16.8917 7.50751C17.0111 7.60776 17.0995 7.73987 17.1468 7.88845C17.194 8.03703 17.1981 8.19597 17.1585 8.34678C17.119 8.49759 17.0374 8.63406 16.9233 8.7403L15.1131 10.4602C15.123 10.4881 15.1304 10.5168 15.1354 10.546L15.5005 13.1199C15.5297 13.2741 15.5142 13.4334 15.4558 13.5791C15.3974 13.7248 15.2986 13.8507 15.1711 13.9421C15.0435 14.0335 14.8925 14.0865 14.7358 14.0948C14.5792 14.1032 14.4234 14.0666 14.2868 13.9893L11.9983 12.7787H11.9949L11.9897 12.7769H11.9811L9.69262 13.9893C9.55565 14.0671 9.39925 14.1039 9.24198 14.0954C9.0847 14.087 8.93317 14.0335 8.80537 13.9414C8.67757 13.8493 8.57888 13.7225 8.52101 13.5759C8.46315 13.4294 8.44854 13.2693 8.47893 13.1148L8.91263 10.534L8.91777 10.51L7.05267 8.72487L7.0441 8.7163C6.93751 8.6088 6.86262 8.47397 6.82768 8.32665C6.79274 8.17933 6.79911 8.02523 6.84607 7.88129C6.89303 7.73735 6.97877 7.60916 7.09385 7.51082C7.20894 7.41247 7.34891 7.34779 7.49837 7.32388H7.50351L10.0869 6.94491L11.2492 4.60593C11.315 4.46813 11.4178 4.35136 11.5462 4.26869C11.6745 4.18601 11.8234 4.14069 11.976 4.13779Z" fill="var(--fill-0, white)"/>
</svg>
