<svg preserveAspectRatio="none" width="100%" height="100%" overflow="visible" style="display: block;" viewBox="0 0 13.5 19.0647" fill="none" xmlns="http://www.w3.org/2000/svg">
<path id="Vector" d="M6.81167 0.0586373C6.68527 0.00196723 6.54442 -0.0141342 6.4085 0.0125491C6.27257 0.0392325 6.14826 0.107389 6.05267 0.207637C5.9595 0.30369 5.89192 0.421578 5.85611 0.550509C5.82029 0.67944 5.81739 0.815295 5.84767 0.945637C5.94667 1.38564 5.99867 1.84564 5.99867 2.31564C5.99867 3.39164 5.72767 4.14564 5.26067 4.77064C4.78667 5.40564 4.10067 5.92264 3.23367 6.50564C3.22018 6.51492 3.20747 6.52528 3.19567 6.53664L3.09067 6.64264C1.99431 7.34996 1.12644 8.35987 0.592078 9.55016C0.0577194 10.7404 -0.120223 12.0601 0.0797853 13.3494C0.279793 14.6387 0.849178 15.8424 1.71904 16.8149C2.5889 17.7873 3.72195 18.4868 4.98108 18.8287C6.24021 19.1707 7.57145 19.1403 8.8137 18.7414C10.056 18.3425 11.156 17.5922 11.9807 16.5811C12.8053 15.5701 13.3193 14.3417 13.4604 13.0446C13.6015 11.7475 13.3637 10.4374 12.7757 9.27264C12.7571 9.2359 12.7298 9.20431 12.6961 9.18067C12.6624 9.15703 12.6234 9.14207 12.5825 9.13713C12.5417 9.13218 12.5002 9.1374 12.4619 9.15231C12.4235 9.16723 12.3894 9.19139 12.3627 9.22264L12.1547 9.46364C11.2767 10.4896 10.5677 11.3186 9.11467 11.6886C9.05267 11.7036 9.01467 11.6926 8.98767 11.6756C8.94455 11.6454 8.91258 11.6018 8.89667 11.5516C8.87047 11.4824 8.86351 11.4073 8.87654 11.3344C8.88957 11.2615 8.9221 11.1935 8.97067 11.1376C9.74767 10.2946 10.2997 9.15064 10.4967 7.52364C10.8667 4.47564 9.48167 1.22964 6.81167 0.0586373Z" fill="var(--fill-0, white)"/>
</svg>
