<svg preserveAspectRatio="none" width="100%" height="100%" overflow="visible" style="display: block;" viewBox="0 0 78.224 69.3335" fill="none" xmlns="http://www.w3.org/2000/svg">
<path id="Ellipse 5" d="M74.4819 30.1325C76.6469 30.1325 78.4223 31.892 78.2061 34.0462C77.6701 39.3884 76.0407 44.5782 73.4037 49.287C70.1264 55.139 65.4023 60.0523 59.6834 63.5569C53.9646 67.0614 47.4421 69.04 40.74 69.3033C34.0379 69.5666 27.3803 68.1059 21.4041 65.0609C15.4279 62.0158 10.3329 57.4883 6.60656 51.9114C2.8802 46.3345 0.647099 39.8948 0.120854 33.2082C-0.405391 26.5216 0.792826 19.8118 3.60089 13.7207C5.86035 8.81952 9.10125 4.45082 13.1081 0.877088C14.7239 -0.563978 17.1909 -0.161833 18.4634 1.5897V1.5897C19.736 3.34123 19.3274 5.77629 17.7482 7.25729C14.8085 10.0142 12.4184 13.3208 10.7209 17.003C8.47446 21.876 7.51589 27.2438 7.93688 32.5931C8.35788 37.9423 10.1444 43.0941 13.1255 47.5557C16.1065 52.0172 20.1825 55.6392 24.9635 58.0752C29.7445 60.5112 35.0705 61.6798 40.4322 61.4691C45.7939 61.2585 51.0118 59.6756 55.587 56.872C60.1621 54.0684 63.9413 50.1377 66.5632 45.4561C68.5444 41.9184 69.8146 38.0413 70.3171 34.0425C70.587 31.8944 72.3169 30.1325 74.4819 30.1325V30.1325Z" fill="var(--fill-0, #4A90E2)"/>
</svg>
