<svg preserveAspectRatio="none" width="100%" height="100%" overflow="visible" style="display: block;" viewBox="0 0 25 27.2675" fill="none" xmlns="http://www.w3.org/2000/svg">
<g id="Group">
<g id="Vector">
</g>
<path id="Vector_2" d="M17.5 6.25C17.5 7.9076 16.8415 9.49731 15.6694 10.6694C14.4973 11.8415 12.9076 12.5 11.25 12.5C9.5924 12.5 8.00269 11.8415 6.83058 10.6694C5.65848 9.49731 5 7.9076 5 6.25C5 4.5924 5.65848 3.00269 6.83058 1.83058C8.00269 0.65848 9.5924 0 11.25 0C12.9076 0 14.4973 0.65848 15.6694 1.83058C16.8415 3.00269 17.5 4.5924 17.5 6.25ZM11.25 13.75C14.245 13.75 16.9687 14.6175 18.9725 15.84C19.9725 16.45 20.8275 17.17 21.445 17.9525C22.0525 18.7212 22.5 19.6412 22.5 20.625C22.5 21.6813 21.9862 22.5138 21.2462 23.1075C20.5462 23.67 19.6225 24.0425 18.6413 24.3025C16.6688 24.8237 14.0363 25 11.25 25C8.46375 25 5.83125 24.825 3.85875 24.3025C2.8775 24.0425 1.95375 23.67 1.25375 23.1075C0.5125 22.5125 0 21.6813 0 20.625C0 19.6412 0.4475 18.7213 1.055 17.9513C1.6725 17.17 2.52625 16.4512 3.5275 15.8387C5.53125 14.6187 8.25625 13.75 11.25 13.75ZM23.75 13.75C24.0686 13.7504 24.375 13.8723 24.6067 14.0911C24.8384 14.3098 24.9778 14.6087 24.9965 14.9267C25.0151 15.2448 24.9117 15.558 24.7072 15.8023C24.5027 16.0466 24.2126 16.2036 23.8963 16.2413L23.75 16.25H22.5C22.1814 16.2496 21.875 16.1277 21.6433 15.9089C21.4116 15.6902 21.2722 15.3913 21.2535 15.0733C21.2349 14.7552 21.3383 14.442 21.5428 14.1977C21.7473 13.9534 22.0374 13.7964 22.3537 13.7587L22.5 13.75H23.75ZM20 11.25C20 10.9185 20.1317 10.6005 20.3661 10.3661C20.6005 10.1317 20.9185 10 21.25 10H23.75C24.0815 10 24.3995 10.1317 24.6339 10.3661C24.8683 10.6005 25 10.9185 25 11.25C25 11.5815 24.8683 11.8995 24.6339 12.1339C24.3995 12.3683 24.0815 12.5 23.75 12.5H21.25C20.9185 12.5 20.6005 12.3683 20.3661 12.1339C20.1317 11.8995 20 11.5815 20 11.25ZM20 6.25C19.6685 6.25 19.3505 6.3817 19.1161 6.61612C18.8817 6.85054 18.75 7.16848 18.75 7.5C18.75 7.83152 18.8817 8.14946 19.1161 8.38388C19.3505 8.6183 19.6685 8.75 20 8.75H23.75C24.0815 8.75 24.3995 8.6183 24.6339 8.38388C24.8683 8.14946 25 7.83152 25 7.5C25 7.16848 24.8683 6.85054 24.6339 6.61612C24.3995 6.3817 24.0815 6.25 23.75 6.25H20Z" fill="var(--fill-0, white)"/>
</g>
</svg>
