<svg preserveAspectRatio="none" width="100%" height="100%" overflow="visible" style="display: block;" viewBox="0 0 24 21" fill="none" xmlns="http://www.w3.org/2000/svg">
<path id="Vector" fill-rule="evenodd" clip-rule="evenodd" d="M18.8571 7.8788C19.5391 7.8788 20.1932 7.60211 20.6754 7.10959C21.1577 6.61707 21.4286 5.94906 21.4286 5.25253C21.4286 4.55601 21.1577 3.888 20.6754 3.39548C20.1932 2.90296 19.5391 2.62627 18.8571 2.62627C18.1752 2.62627 17.5211 2.90296 17.0389 3.39548C16.5566 3.888 16.2857 4.55601 16.2857 5.25253C16.2857 5.94906 16.5566 6.61707 17.0389 7.10959C17.5211 7.60211 18.1752 7.8788 18.8571 7.8788ZM18.8571 10.5051C19.819 10.505 20.7616 10.2294 21.5778 9.70962C22.394 9.18984 23.0511 8.4467 23.4745 7.56462C23.8979 6.68253 24.0706 5.69685 23.973 4.71954C23.8754 3.74223 23.5114 2.81246 22.9223 2.03585C22.3333 1.25923 21.5428 0.6669 20.6406 0.326132C19.7385 -0.0146353 18.7609 -0.0901801 17.8188 0.108079C16.8767 0.306338 16.008 0.770455 15.3112 1.44771C14.6144 2.12497 14.1176 2.98821 13.8771 3.9394H1.28571C0.944722 3.9394 0.617696 4.07775 0.376577 4.32401C0.135459 4.57027 2.96416e-07 4.90427 2.96416e-07 5.25253C2.96416e-07 5.6008 0.135459 5.9348 0.376577 6.18106C0.617696 6.42732 0.944722 6.56567 1.28571 6.56567H13.8771C14.1622 7.69323 14.8061 8.69207 15.7075 9.40517C16.609 10.1183 17.7169 10.5052 18.8571 10.5051ZM7.71429 15.7576C7.71429 16.4541 7.44337 17.1221 6.96113 17.6147C6.4789 18.1072 5.82484 18.3839 5.14286 18.3839C4.46087 18.3839 3.80682 18.1072 3.32458 17.6147C2.84235 17.1221 2.57143 16.4541 2.57143 15.7576C2.57143 15.0611 2.84235 14.3931 3.32458 13.9006C3.80682 13.408 4.46087 13.1313 5.14286 13.1313C5.82484 13.1313 6.4789 13.408 6.96113 13.9006C7.44337 14.3931 7.71429 15.0611 7.71429 15.7576ZM10.1229 17.0707C9.80759 18.3063 9.06261 19.3823 8.02713 20.0977C6.99165 20.8131 5.73654 21.119 4.49635 20.9581C3.25616 20.7972 2.11576 20.1806 1.28827 19.2236C0.460783 18.2665 0.0028314 17.0344 2.96416e-07 15.7576C-0.000424575 14.4789 0.455909 13.2439 1.28343 12.2842C2.11094 11.3246 3.2528 10.7063 4.49486 10.5451C5.73693 10.384 6.99388 10.6912 8.03001 11.4091C9.06614 12.127 9.81027 13.2062 10.1229 14.4445H22.7143C23.0553 14.4445 23.3823 14.5828 23.6234 14.8291C23.8645 15.0753 24 15.4093 24 15.7576C24 16.1059 23.8645 16.4399 23.6234 16.6861C23.3823 16.9324 23.0553 17.0707 22.7143 17.0707H10.1229Z" fill="var(--fill-0, white)"/>
</svg>
