<svg preserveAspectRatio="none" width="100%" height="100%" overflow="visible" style="display: block;" viewBox="0 0 22.5 22.5" fill="none" xmlns="http://www.w3.org/2000/svg">
<path id="Vector" d="M8.75 18.75C6.3125 18.75 4.245 17.9013 2.5475 16.2038C0.850004 14.5063 0.000837644 12.4383 4.31034e-06 10V2.5C4.31034e-06 1.8125 0.245004 1.22417 0.735004 0.735C1.225 0.245833 1.81334 0.000833333 2.5 0H18.125C19.3333 0 20.3646 0.427083 21.2188 1.28125C22.0729 2.13542 22.5 3.16667 22.5 4.375C22.5 5.58333 22.0729 6.61458 21.2188 7.46875C20.3646 8.32292 19.3333 8.75 18.125 8.75H17.5V10C17.5 12.4375 16.6513 14.5054 14.9538 16.2038C13.2563 17.9021 11.1883 18.7508 8.75 18.75ZM2.5 6.25H15V2.5H2.5V6.25ZM17.5 6.25H18.125C18.6458 6.25 19.0888 6.06792 19.4538 5.70375C19.8188 5.33958 20.0008 4.89667 20 4.375C19.9992 3.85333 19.8171 3.41083 19.4538 3.0475C19.0904 2.68417 18.6475 2.50167 18.125 2.5H17.5V6.25ZM1.25 22.5C0.895838 22.5 0.599171 22.38 0.360004 22.14C0.120838 21.9 0.000837644 21.6033 4.31034e-06 21.25C-0.000829023 20.8967 0.119171 20.6 0.360004 20.36C0.600838 20.12 0.897504 20 1.25 20H18.75C19.1042 20 19.4013 20.12 19.6413 20.36C19.8813 20.6 20.0008 20.8967 20 21.25C19.9992 21.6033 19.8792 21.9004 19.64 22.1412C19.4008 22.3821 19.1042 22.5017 18.75 22.5H1.25Z" fill="var(--fill-0, #2C3E50)"/>
</svg>
