<svg preserveAspectRatio="none" width="100%" height="100%" overflow="visible" style="display: block;" viewBox="0 0 23.2501 23.2501" fill="none" xmlns="http://www.w3.org/2000/svg">
<g id="Group">
<path id="Vector" d="M4.75 6.00013H3.5C2.83696 6.00013 2.20107 6.26353 1.73223 6.73237C1.26339 7.20121 1 7.83709 1 8.50013V19.7501C1 20.4132 1.26339 21.0491 1.73223 21.5179C2.20107 21.9867 2.83696 22.2501 3.5 22.2501H14.75C15.413 22.2501 16.0489 21.9867 16.5178 21.5179C16.9866 21.0491 17.25 20.4132 17.25 19.7501V18.5001" stroke="var(--stroke-0, black)" stroke-width="2" stroke-linecap="round" stroke-linejoin="round"/>
<path id="Vector_2" d="M16 3.50013L19.75 7.25013M21.4813 5.48138C21.9736 4.98908 22.2501 4.32136 22.2501 3.62513C22.2501 2.9289 21.9736 2.26119 21.4813 1.76888C20.9889 1.27658 20.3212 1 19.625 1C18.9288 1 18.2611 1.27658 17.7688 1.76888L7.25 12.2501V16.0001H11L21.4813 5.48138Z" stroke="var(--stroke-0, black)" stroke-width="2" stroke-linecap="round" stroke-linejoin="round"/>
</g>
</svg>
