<svg preserveAspectRatio="none" width="100%" height="100%" overflow="visible" style="display: block;" viewBox="0 0 24 24" fill="none" xmlns="http://www.w3.org/2000/svg">
<path id="Vector" d="M21.4242 14.3308L21.3162 13.2453L21.2802 13.2486L21.2453 13.2552L21.4242 14.3308ZM21.4242 14.3308L21.5333 15.4163L21.5693 15.4131L21.6043 15.4076L21.4242 14.3308ZM17.0168 20.3115L17.7074 19.4671L17.6986 19.4605L17.0168 20.3115ZM17.0168 20.3115L16.3262 21.1559L16.3349 21.1635L17.0168 20.3115ZM6.98433 20.3115L6.29376 19.4682L6.2763 19.4823L6.25994 19.4965L6.98433 20.3115ZM6.98433 20.3115L7.67491 21.157L7.69236 21.1428L7.70873 21.1275L6.98433 20.3115ZM2.57577 9.67027V8.57931H2.52123L2.46777 8.58477L2.57577 9.67027ZM2.57577 9.67027V10.7612H2.63032L2.68487 10.7558L2.57577 9.67027ZM15.4163 2.46668C15.3983 2.25684 15.3725 2.04763 15.3411 1.83938C15.3074 1.61012 15.2374 1.38768 15.1338 1.18044L13.1952 2.18194C13.1701 2.13284 13.1755 2.11539 13.1897 2.20157C13.2061 2.29867 13.2202 2.43395 13.2453 2.68487L15.4163 2.46668ZM15.52 3.50309C15.5887 3.59255 15.5658 3.63291 15.5276 3.42017C15.4916 3.21726 15.4633 2.93252 15.4163 2.46668L13.2442 2.68378C13.2879 3.11362 13.325 3.49981 13.3806 3.80746C13.4341 4.10202 13.5279 4.48931 13.7843 4.82533L15.52 3.50309ZM15.52 3.50309L13.7843 4.82533C14.0177 5.13172 14.3282 5.37084 14.684 5.51838C15.0398 5.66593 15.4284 5.71664 15.8102 5.66537L15.52 3.50309ZM16.3251 2.84306C16.0806 3.0497 15.8292 3.248 15.5713 3.43763C15.3934 3.56091 15.4076 3.51727 15.52 3.50309L15.8102 5.66537C16.2291 5.60864 16.5695 5.40135 16.816 5.22898C17.0724 5.05225 17.3724 4.80569 17.7063 4.53186L16.3251 2.84306ZM17.4335 2.13394C17.2139 2.20699 17.0073 2.31452 16.8215 2.4525C16.6688 2.56159 16.4975 2.70232 16.3251 2.84306L17.7063 4.53186C17.9015 4.37258 18.0074 4.28639 18.0881 4.22966C18.159 4.17839 18.1492 4.19585 18.0979 4.21221L17.4335 2.13394ZM18.9652 2.2103C18.4807 2.00034 17.9365 1.97321 17.4335 2.13394L18.0979 4.21221L18.9652 2.2103ZM19.9973 3.02634C19.8504 2.87531 19.6987 2.72904 19.5423 2.58777C19.3709 2.43206 19.1757 2.30464 18.9641 2.2103L18.0979 4.21221C18.0477 4.19039 18.0401 4.17294 18.1056 4.23076C18.1797 4.29621 18.2768 4.39113 18.4547 4.56895L19.9973 3.02634ZM20.9726 4.00166L19.9973 3.02634L18.4547 4.56895L19.43 5.54427L20.9726 4.00166ZM21.7886 5.0337C21.6943 4.82215 21.5669 4.62697 21.4112 4.45549C21.2699 4.29955 21.1236 4.1482 20.9726 4.00166L19.43 5.54536C19.6078 5.72319 19.7027 5.82028 19.7682 5.89447C19.826 5.95992 19.8085 5.95229 19.7867 5.9021L21.7886 5.0337ZM21.865 6.56541C22.0257 6.06242 21.9986 5.51821 21.7886 5.0337L19.7867 5.9021L21.865 6.56541ZM21.1559 7.67382C21.2914 7.51259 21.4216 7.34704 21.5464 7.17743C21.6621 7.01597 21.7864 6.81523 21.865 6.56541L19.7867 5.9021C19.8031 5.85083 19.8195 5.83992 19.7693 5.91192C19.7125 5.99156 19.6274 6.09738 19.4671 6.29267L21.1559 7.67382ZM20.4958 8.48004C20.4817 8.5924 20.438 8.6055 20.5613 8.42767C20.678 8.25857 20.8591 8.03602 21.1559 7.67382L19.4671 6.29267C19.1943 6.6265 18.9467 6.92651 18.7689 7.18289C18.5976 7.42944 18.3903 7.76982 18.3336 8.18875L20.4958 8.48004ZM20.4958 8.48004L18.3336 8.18875C18.2823 8.57053 18.333 8.95909 18.4805 9.31492C18.6281 9.67075 18.8672 9.98118 19.1736 10.2147L20.4958 8.48004ZM21.5323 8.58368C21.2132 8.55699 20.8952 8.51952 20.5788 8.47131C20.366 8.43313 20.4064 8.41131 20.4958 8.48004L19.1736 10.2147C19.5096 10.471 19.8958 10.5649 20.1926 10.6183C20.4991 10.6729 20.8853 10.711 21.3152 10.7547L21.5323 8.58368ZM22.8185 8.86514C22.6112 8.7615 22.3888 8.69153 22.1596 8.65786C21.9513 8.62641 21.7421 8.60167 21.5323 8.58368L21.3152 10.7547C21.4767 10.7689 21.6378 10.7871 21.7984 10.8092C21.8857 10.8245 21.8672 10.83 21.8181 10.8049L22.8185 8.86514ZM23.8473 10.003C23.6534 9.51171 23.2878 9.10741 22.8185 8.86514L21.8192 10.807L23.8473 10.003ZM24 11.31C24 11.0874 24 10.866 23.988 10.6783C23.977 10.4467 23.9291 10.2184 23.8462 10.0019L21.8192 10.807C21.7995 10.7558 21.8061 10.7383 21.8126 10.8256C21.8192 10.9238 21.8192 11.0602 21.8192 11.3122L24 11.31ZM24 12.6889V11.31H21.8181V12.6889H24ZM23.8473 13.9959C23.9433 13.7526 23.9749 13.5192 23.988 13.3195C24 13.133 24 12.9115 24 12.6889H21.8181C21.8181 12.941 21.8181 13.0773 21.8115 13.1755C21.805 13.2628 21.7984 13.2453 21.8181 13.1941L23.8473 13.9959ZM22.8185 15.1338C23.2878 14.8915 23.6534 14.4872 23.8473 13.9959L21.8192 13.1952L22.8185 15.1338ZM21.5323 15.4153C21.7548 15.3934 21.9741 15.3716 22.1596 15.3411C22.3559 15.3083 22.585 15.2538 22.8185 15.1338L21.8192 13.1952C21.8672 13.1701 21.8857 13.1755 21.7995 13.1897C21.639 13.2127 21.4778 13.2313 21.3162 13.2453L21.5323 15.4153ZM20.4969 15.5189C20.4064 15.5876 20.366 15.5658 20.5788 15.5276C20.7817 15.4916 21.0664 15.4622 21.5323 15.4153L21.3152 13.2442C20.8864 13.2879 20.4991 13.325 20.1926 13.3806C19.8969 13.4341 19.5096 13.5279 19.1736 13.7843L20.4969 15.5189ZM20.4969 15.5189L19.1736 13.7843C18.8672 14.0177 18.6281 14.3282 18.4805 14.684C18.333 15.0398 18.2823 15.4284 18.3336 15.8102L20.4969 15.5189ZM21.1559 16.324C20.9493 16.0799 20.7509 15.8288 20.5613 15.5713C20.438 15.3934 20.4828 15.4065 20.4969 15.5189L18.3336 15.8102C18.3903 16.2291 18.5976 16.5695 18.7699 16.816C18.9478 17.0724 19.1943 17.3724 19.4671 17.7063L21.1559 16.324ZM21.865 17.4324C21.7918 17.2132 21.6843 17.007 21.5464 16.8215C21.4373 16.6677 21.2966 16.4975 21.1559 16.324L19.4671 17.7063C19.6264 17.9015 19.7125 18.0063 19.7693 18.087C19.8205 18.1579 19.8042 18.1492 19.7867 18.0979L21.865 17.4324ZM21.7886 18.9652C21.9989 18.4804 22.026 17.9358 21.865 17.4324L19.7867 18.0979L21.7886 18.9652ZM20.9726 19.9973C21.1308 19.8391 21.2868 19.6842 21.4112 19.5423C21.5421 19.3918 21.6839 19.2052 21.7886 18.9641L19.7867 18.0968C19.8085 18.0466 19.826 18.0401 19.7682 18.1056C19.7027 18.1797 19.6078 18.2757 19.43 18.4547L20.9726 19.9973ZM19.9973 20.9715L20.9726 19.9973L19.43 18.4547L18.4547 19.4289L19.9973 20.9715ZM18.9652 21.7886C19.1769 21.694 19.372 21.5662 19.5434 21.4101C19.6842 21.2868 19.8402 21.1297 19.9973 20.9715L18.4547 19.4289C18.3415 19.5448 18.225 19.6576 18.1056 19.7671C18.0401 19.826 18.0477 19.8085 18.0979 19.7867L18.9652 21.7886ZM17.4335 21.865C17.9365 22.0257 18.4807 21.9986 18.9652 21.7886L18.0979 19.7867L17.4335 21.865ZM16.3251 21.1559C16.4975 21.2966 16.6677 21.4373 16.8215 21.5464C16.983 21.661 17.1837 21.7854 17.4335 21.865L18.0979 19.7867C18.1492 19.8031 18.159 19.8195 18.087 19.7693C17.9573 19.6721 17.8303 19.5713 17.7063 19.4671L16.3251 21.1559ZM15.52 20.4969C15.4076 20.4806 15.3934 20.4369 15.5713 20.5602C15.7404 20.678 15.9618 20.858 16.324 21.1548L17.7063 19.4671C17.3724 19.1932 17.0724 18.9467 16.816 18.7689C16.5695 18.5965 16.2291 18.3903 15.8102 18.3336L15.52 20.4969ZM15.52 20.4969L15.8102 18.3336C15.4284 18.2823 15.0398 18.333 14.684 18.4805C14.3282 18.6281 14.0177 18.8672 13.7843 19.1736L15.52 20.4969ZM15.4153 21.5323C15.4622 21.0664 15.4916 20.7806 15.5276 20.5788C15.5658 20.366 15.5876 20.4053 15.5189 20.4958L13.7843 19.1725C13.5279 19.5085 13.4341 19.8958 13.3806 20.1915C13.3261 20.4991 13.289 20.8853 13.2453 21.3152L15.4153 21.5323ZM15.1327 22.8185C15.2527 22.585 15.3072 22.3559 15.34 22.1596C15.3727 21.9741 15.3923 21.7548 15.4153 21.5323L13.2453 21.3152C13.2309 21.4771 13.212 21.6375 13.1886 21.7984C13.1744 21.8857 13.169 21.8672 13.1941 21.8181L15.1327 22.8185ZM13.997 23.8473C14.4875 23.6529 14.891 23.2874 15.1327 22.8185L13.1952 21.8192L13.997 23.8473ZM12.6879 24C12.9115 24 13.133 24 13.3206 23.988C13.5192 23.9749 13.7526 23.9455 13.997 23.8473L13.1952 21.8192C13.2464 21.7995 13.2639 21.8061 13.1766 21.8126C13.0145 21.8193 12.8523 21.8215 12.69 21.8192L12.6879 24ZM11.31 24H12.6879L12.6889 21.8181H11.31V24ZM10.003 23.8473C10.2463 23.9433 10.4798 23.9749 10.6794 23.988C10.866 24 11.0874 24 11.31 24V21.8181C11.058 21.8181 10.9216 21.8181 10.8234 21.8115C10.7361 21.805 10.7536 21.7984 10.8049 21.8181L10.003 23.8473ZM8.86514 22.8185C9.10741 23.2878 9.51171 23.6534 10.003 23.8473L10.8049 21.8181L8.86514 22.8185ZM8.58368 21.5323C8.6055 21.7548 8.62732 21.9741 8.65786 22.1596C8.69059 22.3559 8.74514 22.585 8.86514 22.8185L10.807 21.8192C10.8321 21.8672 10.8267 21.8857 10.8125 21.7995C10.7895 21.639 10.7709 21.4778 10.7569 21.3162L8.58368 21.5323ZM8.48004 20.4958C8.41131 20.4064 8.43313 20.3649 8.47131 20.5788C8.50731 20.7806 8.53677 21.0664 8.58368 21.5323L10.7547 21.3152C10.711 20.8853 10.674 20.4991 10.6183 20.1915C10.5649 19.8969 10.471 19.5096 10.2147 19.1736L8.48004 20.4958ZM8.48004 20.4958L10.2147 19.1736C9.98118 18.8672 9.67075 18.6281 9.31492 18.4805C8.95909 18.333 8.57053 18.2823 8.18875 18.3336L8.48004 20.4958ZM7.67382 21.1559C8.03711 20.8591 8.25857 20.678 8.42767 20.5613C8.6055 20.438 8.5924 20.4817 8.48004 20.4958L8.18875 18.3336C7.76982 18.3903 7.42944 18.5976 7.18289 18.7699C6.92651 18.9467 6.6265 19.1932 6.29267 19.4671L7.67382 21.1559ZM6.56541 21.865C6.78502 21.7919 6.99161 21.6844 7.17743 21.5464C7.33017 21.4373 7.50145 21.2966 7.67382 21.1559L6.29376 19.4682C6.16931 19.5724 6.04308 19.6732 5.91301 19.7704C5.8421 19.8216 5.85192 19.8053 5.90319 19.7878L6.56541 21.865ZM5.0337 21.7886C5.51821 21.9986 6.06242 22.0257 6.56541 21.865L5.90101 19.7867L5.0337 21.7886ZM4.00056 20.9726C4.15875 21.1308 4.31476 21.2868 4.45658 21.4112C4.60605 21.5421 4.7926 21.685 5.03479 21.7897L5.90101 19.7867C5.9512 19.8085 5.95883 19.826 5.89338 19.7682C5.77389 19.6587 5.65748 19.5459 5.54427 19.43L4.00056 20.9726ZM3.02634 19.9973L4.00166 20.9726L5.54427 19.43L4.56895 18.4547L3.02634 19.9973ZM2.2103 18.9652C2.31394 19.2052 2.45686 19.3929 2.58777 19.5434C2.71214 19.6842 2.86815 19.8402 3.02634 19.9973L4.56895 18.4547C4.453 18.3415 4.34023 18.225 4.23076 18.1056C4.17294 18.0401 4.19039 18.0477 4.21221 18.0979L2.2103 18.9652ZM2.13394 17.4335C1.97321 17.9365 2.00034 18.4807 2.2103 18.9652L4.21221 18.0979L2.13394 17.4335ZM2.84306 16.3251C2.70758 16.4863 2.57733 16.6519 2.4525 16.8215C2.31452 17.0073 2.20699 17.2139 2.13394 17.4335L4.21221 18.0979C4.19475 18.1492 4.17948 18.159 4.22966 18.087C4.28639 18.0074 4.37149 17.9015 4.53186 17.7063L2.84306 16.3251ZM3.502 15.5189C3.51727 15.4065 3.56091 15.3934 3.43763 15.5713C3.3209 15.7404 3.1398 15.9629 2.84306 16.3251L4.53186 17.7063C4.8046 17.3724 5.05225 17.0724 5.23007 16.816C5.40135 16.5695 5.60864 16.2291 5.66537 15.8102L3.502 15.5189ZM3.502 15.5189L5.66537 15.8102C5.71664 15.4284 5.66593 15.0398 5.51838 14.684C5.37084 14.3282 5.13172 14.0177 4.82533 13.7843L3.502 15.5189ZM2.46559 15.4153C2.93252 15.4622 3.21835 15.4916 3.42017 15.5276C3.63291 15.5658 3.59255 15.5876 3.502 15.5189L4.82533 13.7843C4.48931 13.5279 4.10311 13.4341 3.80637 13.3806C3.49981 13.3261 3.11362 13.2879 2.68269 13.2442L2.46559 15.4153ZM1.18044 15.1338C1.4139 15.2538 1.643 15.3083 1.83938 15.3411C2.02484 15.3716 2.24412 15.3945 2.46668 15.4163L2.68269 13.2442C2.52111 13.2306 2.36104 13.2124 2.20048 13.1897C2.11321 13.1744 2.13175 13.169 2.18085 13.1941L1.18044 15.1338ZM0.152756 13.997C0.346653 14.4883 0.712185 14.8926 1.18153 15.1349L2.18194 13.1952L0.152756 13.997ZM2.22622e-05 12.69C2.22622e-05 12.9126 2.23029e-05 13.1341 0.0120228 13.3217C0.0251143 13.5203 0.0556611 13.7537 0.153847 13.9981L2.18194 13.1941C2.20157 13.2453 2.19503 13.2628 2.18957 13.1755C2.18253 13.0138 2.17998 12.8519 2.18194 12.69H2.22622e-05ZM2.22622e-05 11.3111V12.69H2.18194V11.3111H2.22622e-05ZM0.152756 10.003C0.0702209 10.2196 0.0227144 10.4479 0.0120228 10.6794C-0.00106865 10.8671 2.22622e-05 11.0885 2.22622e-05 11.3122H2.18194C2.18194 11.0591 2.18194 10.9227 2.18957 10.8245C2.19503 10.7372 2.20157 10.7547 2.18194 10.806L0.152756 10.003ZM1.18153 8.86733C0.712578 9.10906 0.347098 9.51252 0.152756 10.003L2.18194 10.806L1.18153 8.86733ZM2.46777 8.58368C2.24521 8.60659 2.02593 8.62732 1.84047 8.66004C1.6441 8.69277 1.41499 8.74732 1.18153 8.86733L2.18194 10.806C2.13284 10.831 2.11539 10.8256 2.20157 10.8114C2.36212 10.7884 2.52329 10.7698 2.68487 10.7558L2.46777 8.58368ZM3.50418 8.48113C3.59473 8.4124 3.63509 8.43422 3.42127 8.4724C3.21944 8.5084 2.93361 8.53786 2.46777 8.58477L2.68487 10.7558C3.11362 10.7121 3.50091 10.675 3.80856 10.6194C4.10421 10.5659 4.4915 10.4721 4.82751 10.2157L3.50418 8.48113ZM3.50418 8.48113L4.82751 10.2157C5.1337 9.98215 5.37261 9.67166 5.51996 9.31584C5.66731 8.96001 5.71785 8.57152 5.66646 8.18984L3.50418 8.48113ZM2.84415 7.67491C3.14089 8.03711 3.32199 8.25966 3.43981 8.42876C3.56309 8.60659 3.51945 8.5935 3.50418 8.48113L5.66646 8.18984C5.60973 7.77091 5.40354 7.43163 5.23116 7.18398C5.05334 6.9276 4.80569 6.62759 4.53295 6.29376L2.84415 7.67491ZM2.13503 6.56541C2.21467 6.81633 2.33794 7.01597 2.45359 7.17852C2.56268 7.33126 2.70342 7.50254 2.84415 7.67491L4.53295 6.29376C4.42869 6.16931 4.32792 6.04308 4.23076 5.91301C4.17948 5.8421 4.19694 5.85083 4.2133 5.9021L2.13503 6.56541ZM2.21139 5.03479C2.0017 5.51898 1.97457 6.06275 2.13503 6.56541L4.2133 5.9021L2.21139 5.03479ZM3.02743 4.00166C2.86924 4.15984 2.71323 4.31476 2.58886 4.45658C2.43315 4.62806 2.30573 4.82324 2.21139 5.03479L4.2133 5.9021C4.19148 5.95229 4.17403 5.95992 4.23185 5.89338C4.2973 5.81919 4.39222 5.72319 4.57004 5.54427L3.02743 4.00166ZM4.00275 3.02743L3.02743 4.00166L4.57004 5.54427L5.54645 4.57004L4.00275 3.02743ZM5.03479 2.2103C4.82317 2.30497 4.62798 2.43276 4.45658 2.58886C4.30064 2.73015 4.14929 2.87642 4.00275 3.02743L5.54645 4.57004C5.72428 4.39113 5.82028 4.29621 5.89447 4.23185C5.95992 4.17294 5.95229 4.19039 5.9021 4.21221L5.03479 2.2103ZM6.5665 2.13394C6.06351 1.97321 5.5193 2.00034 5.03479 2.2103L5.9021 4.21221L6.5665 2.13394ZM7.67382 2.84306C7.50145 2.70232 7.33235 2.56268 7.17852 2.45359C6.99277 2.31523 6.78618 2.20733 6.5665 2.13394L5.9021 4.21221C5.85083 4.19585 5.84101 4.17948 5.91301 4.22966C5.99265 4.28749 6.09848 4.37258 6.29376 4.53295L7.67382 2.84306ZM8.48113 3.50309C8.5935 3.51836 8.60659 3.562 8.42876 3.43872C8.17121 3.24907 7.92014 3.05077 7.676 2.84415L6.29376 4.53295C6.62759 4.80569 6.92651 5.05225 7.18289 5.23116C7.42944 5.40244 7.76982 5.60864 8.18875 5.66537L8.48113 3.50309ZM8.48113 3.50309L8.18984 5.66537C8.57162 5.71664 8.96018 5.66593 9.31601 5.51838C9.67184 5.37084 9.98227 5.13172 10.2157 4.82533L8.48113 3.50309ZM8.58477 2.46668C8.53786 2.93361 8.5084 3.21944 8.4724 3.42127C8.43422 3.634 8.4124 3.59364 8.48113 3.50309L10.2157 4.82533C10.4721 4.48931 10.5659 4.10311 10.6194 3.80746C10.674 3.50091 10.7132 3.11362 10.7558 2.68378L8.58477 2.46668ZM8.86623 1.18153C8.76259 1.38878 8.69262 1.61121 8.65895 1.84047C8.62841 2.02593 8.60659 2.24521 8.58477 2.46777L10.7558 2.68378C10.77 2.52225 10.7882 2.3622 10.8103 2.20157C10.8256 2.1143 10.831 2.13394 10.806 2.18194L8.86623 1.18153ZM10.0041 0.152756C9.5128 0.346653 9.1085 0.712185 8.86623 1.18153L10.806 2.18194L10.0041 0.152756ZM11.3111 2.22622e-05C11.0885 2.22622e-05 10.8671 2.23029e-05 10.6794 0.0120228C10.4479 0.0227144 10.2196 0.0702209 10.003 0.152756L10.807 2.18194C10.7558 2.20157 10.7383 2.19503 10.8256 2.18957C10.9238 2.18303 11.0602 2.18194 11.3122 2.18194L11.3111 2.22622e-05ZM12.69 2.22622e-05H11.3111V2.18194H12.69V2.22622e-05ZM13.997 0.152756C13.7804 0.0702209 13.5521 0.0227144 13.3206 0.0120228C13.1352 -0.00106865 12.9137 2.22622e-05 12.6911 2.22622e-05V2.18194C12.9431 2.18194 13.0795 2.18194 13.1777 2.18957C13.265 2.19503 13.2464 2.20157 13.1952 2.18194L13.997 0.152756ZM15.1349 1.18153C14.8926 0.712185 14.4883 0.346653 13.997 0.152756L13.1952 2.18194L15.1349 1.18153ZM15.2734 12.0006C15.2734 12.8686 14.9286 13.701 14.3148 14.3148C13.701 14.9286 12.8686 15.2734 12.0006 15.2734V17.4553C13.4473 17.4553 14.8347 16.8806 15.8577 15.8577C16.8806 14.8347 17.4553 13.4473 17.4553 12.0006H15.2734ZM12.0006 8.72768C12.8686 8.72768 13.701 9.0725 14.3148 9.68628C14.9286 10.3001 15.2734 11.1325 15.2734 12.0006H17.4553C17.4553 10.5539 16.8806 9.16641 15.8577 8.14344C14.8347 7.12047 13.4473 6.54577 12.0006 6.54577V8.72768ZM8.72768 12.0006C8.72768 11.1325 9.0725 10.3001 9.68628 9.68628C10.3001 9.0725 11.1325 8.72768 12.0006 8.72768V6.54577C10.5539 6.54577 9.16641 7.12047 8.14344 8.14344C7.12047 9.16641 6.54577 10.5539 6.54577 12.0006H8.72768ZM12.0006 15.2734C11.1325 15.2734 10.3001 14.9286 9.68628 14.3148C9.0725 13.701 8.72768 12.8686 8.72768 12.0006H6.54577C6.54577 13.4473 7.12047 14.8347 8.14344 15.8577C9.16641 16.8806 10.5539 17.4553 12.0006 17.4553V15.2734Z" fill="var(--fill-0, white)"/>
</svg>
