<svg preserveAspectRatio="none" width="100%" height="100%" overflow="visible" style="display: block;" viewBox="0 0 25 21.25" fill="none" xmlns="http://www.w3.org/2000/svg">
<path id="Vector" d="M18.75 20C18.75 17.9289 15.9518 16.25 12.5 16.25C9.04822 16.25 6.25 17.9289 6.25 20M23.75 16.2505C23.75 14.7127 22.2074 13.3912 20 12.8125M1.25 16.2505C1.25 14.7127 2.79262 13.3912 5 12.8125M20 7.79513C20.7672 7.10848 21.25 6.11062 21.25 5C21.25 2.92893 19.5711 1.25 17.5 1.25C16.5396 1.25 15.6634 1.61107 15 2.20487M5 7.79513C4.23281 7.10848 3.75 6.11062 3.75 5C3.75 2.92893 5.42893 1.25 7.5 1.25C8.46044 1.25 9.33655 1.61107 10 2.20487M12.5 12.5C10.4289 12.5 8.75 10.8211 8.75 8.75C8.75 6.67893 10.4289 5 12.5 5C14.5711 5 16.25 6.67893 16.25 8.75C16.25 10.8211 14.5711 12.5 12.5 12.5Z" stroke="var(--stroke-0, white)" stroke-width="2.5" stroke-linecap="round" stroke-linejoin="round"/>
</svg>
