<svg preserveAspectRatio="none" width="100%" height="100%" overflow="visible" style="display: block;" viewBox="0 0 119.728 106.12" fill="none" xmlns="http://www.w3.org/2000/svg">
<g id="Ellipse 5">
<path d="M114 46.1201C117.314 46.1201 120.031 48.813 119.7 52.1102C118.88 60.2869 116.386 68.2303 112.35 75.4374C107.334 84.3944 100.103 91.9145 91.3499 97.2785C82.5967 102.642 72.6137 105.671 62.3556 106.074C52.0975 106.477 41.9076 104.241 32.7606 99.5805C23.6135 94.9198 15.8153 87.9901 10.1118 79.4543C4.40837 70.9184 0.990433 61.0619 0.184976 50.8276C-0.620482 40.5933 1.21348 30.3235 5.51143 21.0005C8.96969 13.4989 13.9301 6.81231 20.063 1.34245C22.536 -0.86321 26.3119 -0.247698 28.2596 2.43315V2.43315C30.2074 5.114 29.582 8.84103 27.1649 11.1078C22.6654 15.3275 19.0074 20.3885 16.4091 26.0244C12.9708 33.4828 11.5036 41.6986 12.148 49.8861C12.7924 58.0736 15.5267 65.9588 20.0895 72.7874C24.6522 79.6161 30.8908 85.1599 38.2085 88.8884C45.5261 92.6169 53.678 94.4055 61.8845 94.0831C70.0909 93.7606 78.0774 91.338 85.0799 87.0468C92.0825 82.7556 97.8669 76.7395 101.88 69.5739C104.912 64.1592 106.856 58.225 107.626 52.1046C108.039 48.8167 110.686 46.1201 114 46.1201V46.1201Z" fill="var(--fill-0, #ECF0F1)"/>
<path d="M114 46.1201C117.314 46.1201 120.031 48.813 119.7 52.1102C118.88 60.2869 116.386 68.2303 112.35 75.4374C107.334 84.3944 100.103 91.9145 91.3499 97.2785C82.5967 102.642 72.6137 105.671 62.3556 106.074C52.0975 106.477 41.9076 104.241 32.7606 99.5805C23.6135 94.9198 15.8153 87.9901 10.1118 79.4543C4.40837 70.9184 0.990433 61.0619 0.184976 50.8276C-0.620482 40.5933 1.21348 30.3235 5.51143 21.0005C8.96969 13.4989 13.9301 6.81231 20.063 1.34245C22.536 -0.86321 26.3119 -0.247698 28.2596 2.43315V2.43315C30.2074 5.114 29.582 8.84103 27.1649 11.1078C22.6654 15.3275 19.0074 20.3885 16.4091 26.0244C12.9708 33.4828 11.5036 41.6986 12.148 49.8861C12.7924 58.0736 15.5267 65.9588 20.0895 72.7874C24.6522 79.6161 30.8908 85.1599 38.2085 88.8884C45.5261 92.6169 53.678 94.4055 61.8845 94.0831C70.0909 93.7606 78.0774 91.338 85.0799 87.0468C92.0825 82.7556 97.8669 76.7395 101.88 69.5739C104.912 64.1592 106.856 58.225 107.626 52.1046C108.039 48.8167 110.686 46.1201 114 46.1201V46.1201Z" fill="url(#paint0_linear_469_3209)" fill-opacity="0.8"/>
<path d="M114 46.1201C117.314 46.1201 120.031 48.813 119.7 52.1102C118.88 60.2869 116.386 68.2303 112.35 75.4374C107.334 84.3944 100.103 91.9145 91.3499 97.2785C82.5967 102.642 72.6137 105.671 62.3556 106.074C52.0975 106.477 41.9076 104.241 32.7606 99.5805C23.6135 94.9198 15.8153 87.9901 10.1118 79.4543C4.40837 70.9184 0.990433 61.0619 0.184976 50.8276C-0.620482 40.5933 1.21348 30.3235 5.51143 21.0005C8.96969 13.4989 13.9301 6.81231 20.063 1.34245C22.536 -0.86321 26.3119 -0.247698 28.2596 2.43315V2.43315C30.2074 5.114 29.582 8.84103 27.1649 11.1078C22.6654 15.3275 19.0074 20.3885 16.4091 26.0244C12.9708 33.4828 11.5036 41.6986 12.148 49.8861C12.7924 58.0736 15.5267 65.9588 20.0895 72.7874C24.6522 79.6161 30.8908 85.1599 38.2085 88.8884C45.5261 92.6169 53.678 94.4055 61.8845 94.0831C70.0909 93.7606 78.0774 91.338 85.0799 87.0468C92.0825 82.7556 97.8669 76.7395 101.88 69.5739C104.912 64.1592 106.856 58.225 107.626 52.1046C108.039 48.8167 110.686 46.1201 114 46.1201V46.1201Z" stroke="var(--stroke-0, black)"/>
</g>
<defs>
<linearGradient id="paint0_linear_469_3209" x1="1.68112e-05" y1="46.1201" x2="120" y2="46.1201" gradientUnits="userSpaceOnUse">
<stop stop-color="#4A90E2"/>
<stop offset="1" stop-color="#A8D5BA"/>
</linearGradient>
</defs>
</svg>
