<svg preserveAspectRatio="none" width="100%" height="100%" overflow="visible" style="display: block;" viewBox="0 0 22.5 26.955" fill="none" xmlns="http://www.w3.org/2000/svg">
<g id="Group">
<g id="Vector">
</g>
<path id="Vector_2" d="M12.75 0.5C12.3173 0.175445 11.7909 0 11.25 0C10.7091 0 10.1827 0.175445 9.75 0.5L1 7.0625C0.68951 7.29537 0.437501 7.59733 0.263932 7.94447C0.0903628 8.2916 0 8.67439 0 9.0625V20.9375C0 21.6005 0.263392 22.2364 0.732233 22.7053C1.20107 23.1741 1.83696 23.4375 2.5 23.4375H7.375C7.73967 23.4375 8.08941 23.2926 8.34727 23.0348C8.60513 22.7769 8.75 22.4272 8.75 22.0625V15.9375C8.75 15.2745 9.01339 14.6386 9.48223 14.1697C9.95107 13.7009 10.587 13.4375 11.25 13.4375C11.913 13.4375 12.5489 13.7009 13.0178 14.1697C13.4866 14.6386 13.75 15.2745 13.75 15.9375V22.0625C13.75 22.4272 13.8949 22.7769 14.1527 23.0348C14.4106 23.2926 14.7603 23.4375 15.125 23.4375H20C20.663 23.4375 21.2989 23.1741 21.7678 22.7053C22.2366 22.2364 22.5 21.6005 22.5 20.9375V9.0625C22.5 8.67439 22.4096 8.2916 22.2361 7.94447C22.0625 7.59733 21.8105 7.29537 21.5 7.0625L12.75 0.5Z" fill="var(--fill-0, white)"/>
</g>
</svg>
