<svg preserveAspectRatio="none" width="100%" height="100%" overflow="visible" style="display: block;" viewBox="0 0 23.5357 27.0532" fill="none" xmlns="http://www.w3.org/2000/svg">
<g id="Group">
<g id="Vector">
</g>
<path id="Vector_2" fill-rule="evenodd" clip-rule="evenodd" d="M15.7325 0.731966C16.2013 0.263289 16.8371 0 17.5 0C18.1629 0 18.7987 0.263289 19.2675 0.731966L22.8038 4.26822C23.2724 4.73704 23.5357 5.37281 23.5357 6.03572C23.5357 6.69863 23.2724 7.3344 22.8038 7.80322L19.2675 11.3395C18.7987 11.8081 18.1629 12.0714 17.5 12.0714C16.8371 12.0714 16.2013 11.8081 15.7325 11.3395L12.1962 7.80322C11.7276 7.3344 11.4643 6.69863 11.4643 6.03572C11.4643 5.37281 11.7276 4.73704 12.1962 4.26822L15.7325 0.731966ZM7.5 1.03572C8.16304 1.03572 8.79893 1.29911 9.26777 1.76795C9.73661 2.23679 10 2.87267 10 3.53572V8.53572C10 9.19876 9.73661 9.83464 9.26777 10.3035C8.79893 10.7723 8.16304 11.0357 7.5 11.0357H2.5C1.83696 11.0357 1.20107 10.7723 0.732233 10.3035C0.263392 9.83464 0 9.19876 0 8.53572V3.53572C0 2.87267 0.263392 2.23679 0.732233 1.76795C1.20107 1.29911 1.83696 1.03572 2.5 1.03572H7.5ZM22.5 16.0357C22.5 15.3727 22.2366 14.7368 21.7678 14.268C21.2989 13.7991 20.663 13.5357 20 13.5357H15C14.337 13.5357 13.7011 13.7991 13.2322 14.268C12.7634 14.7368 12.5 15.3727 12.5 16.0357V21.0357C12.5 21.6988 12.7634 22.3346 13.2322 22.8035C13.7011 23.2723 14.337 23.5357 15 23.5357H20C20.663 23.5357 21.2989 23.2723 21.7678 22.8035C22.2366 22.3346 22.5 21.6988 22.5 21.0357V16.0357ZM7.5 13.5357C8.16304 13.5357 8.79893 13.7991 9.26777 14.268C9.73661 14.7368 10 15.3727 10 16.0357V21.0357C10 21.6988 9.73661 22.3346 9.26777 22.8035C8.79893 23.2723 8.16304 23.5357 7.5 23.5357H2.5C1.83696 23.5357 1.20107 23.2723 0.732233 22.8035C0.263392 22.3346 0 21.6988 0 21.0357V16.0357C0 15.3727 0.263392 14.7368 0.732233 14.268C1.20107 13.7991 1.83696 13.5357 2.5 13.5357H7.5Z" fill="var(--fill-0, white)"/>
</g>
</svg>
