<svg preserveAspectRatio="none" width="100%" height="100%" overflow="visible" style="display: block;" viewBox="0 0 22 21.4826" fill="none" xmlns="http://www.w3.org/2000/svg">
<path id="Vector" d="M1 20.4826H21M1 20.4826V15.4826L11 5.48257M1 20.4826L6 20.4825L16 10.4826M11 5.48257L14.5858 1.89675L14.5879 1.89462C15.0815 1.40102 15.3288 1.15378 15.6138 1.06118C15.8648 0.979607 16.1353 0.979607 16.3864 1.06118C16.6712 1.15372 16.9181 1.40067 17.411 1.89358L19.5858 4.06832C20.0808 4.56334 20.3284 4.81097 20.4211 5.09638C20.5027 5.34743 20.5027 5.61786 20.4211 5.86892C20.3284 6.15413 20.0812 6.40138 19.5869 6.89569L19.5858 6.89675L16 10.4826M11 5.48257L16 10.4826" stroke="var(--stroke-0, #2C3E50)" stroke-width="2" stroke-linecap="round" stroke-linejoin="round"/>
</svg>
