<svg preserveAspectRatio="none" width="100%" height="100%" overflow="visible" style="display: block;" viewBox="0 0 20.8636 20.8639" fill="none" xmlns="http://www.w3.org/2000/svg">
<path id="Vector" fill-rule="evenodd" clip-rule="evenodd" d="M6.16777 0.588401C7.57718 0.35681 9.00352 0.243704 10.4318 0.25027C12.1632 0.25027 13.5943 0.402761 14.6959 0.588401L14.8237 0.610186C15.7804 0.770253 16.576 0.903801 17.1973 1.66909C17.596 2.16066 17.7248 2.69201 17.7542 3.28398L18.2202 3.43931C18.6587 3.58517 19.0442 3.71398 19.3482 3.85605C19.6779 4.00949 19.98 4.2065 20.2111 4.52758C20.4422 4.84866 20.5341 5.19721 20.5757 5.55808C20.6136 5.89242 20.6136 6.29685 20.6136 6.76095V6.89734C20.6136 7.27809 20.6136 7.61433 20.5852 7.89563C20.5549 8.19967 20.4877 8.49612 20.32 8.78216C20.1505 9.06915 19.9241 9.27183 19.6731 9.44611C19.4411 9.60712 19.1475 9.77098 18.8141 9.95567L16.3136 11.3451C15.8021 12.3501 15.1012 13.2461 14.1352 13.893C13.3064 14.4489 12.3147 14.8013 11.1422 14.9017V16.8253H12.4966C12.8798 16.8253 13.2512 16.9581 13.5475 17.2011C13.8438 17.4441 14.0468 17.7822 14.1219 18.158L14.3293 19.1932H16.1147C16.3031 19.1932 16.4838 19.268 16.617 19.4012C16.7502 19.5345 16.8251 19.7151 16.8251 19.9035C16.8251 20.0919 16.7502 20.2726 16.617 20.4058C16.4838 20.5391 16.3031 20.6139 16.1147 20.6139H4.74894C4.56054 20.6139 4.37986 20.5391 4.24664 20.4058C4.11342 20.2726 4.03858 20.0919 4.03858 19.9035C4.03858 19.7151 4.11342 19.5345 4.24664 19.4012C4.37986 19.268 4.56054 19.1932 4.74894 19.1932H6.53431L6.74174 18.158C6.81685 17.7822 7.01983 17.4441 7.31616 17.2011C7.61248 16.9581 7.98384 16.8253 8.36704 16.8253H9.72146V14.9017C8.54889 14.8013 7.55723 14.4489 6.72848 13.8939C5.76334 13.2461 5.0615 12.3501 4.55004 11.3451L2.04958 9.95567C1.75524 9.79965 1.46856 9.6296 1.19052 9.44611C0.928213 9.27633 0.707449 9.04974 0.544562 8.78311C0.390368 8.511 0.299404 8.20768 0.278414 7.89563C0.25 7.61433 0.25 7.27809 0.25 6.89734V6.76C0.25 6.2978 0.25 5.89242 0.287886 5.55808C0.32956 5.19721 0.420486 4.84772 0.652537 4.52758C0.883641 4.2065 1.18578 4.00949 1.51444 3.85511C1.82037 3.71304 2.20491 3.58517 2.64344 3.43931L3.10943 3.28398C3.1388 2.69107 3.26761 2.16066 3.66636 1.66909C4.28863 0.902854 5.08329 0.769306 6.04085 0.610186L6.16777 0.588401ZM7.98345 19.1932H12.8802L12.7286 18.4364C12.7179 18.3828 12.6889 18.3345 12.6466 18.2998C12.6043 18.2651 12.5513 18.2461 12.4966 18.246H8.36704C8.31232 18.2461 8.2593 18.2651 8.217 18.2998C8.17469 18.3345 8.14571 18.3828 8.13499 18.4364L7.98345 19.1932ZM3.14069 4.771C3.20888 6.21066 3.37085 7.80186 3.77622 9.28888L2.76657 8.72912C2.39813 8.52359 2.16702 8.39478 2.00033 8.27923C1.84689 8.1722 1.79669 8.10874 1.76922 8.06138C1.74081 8.01402 1.7105 7.94015 1.69156 7.75451C1.67198 7.4588 1.66503 7.16239 1.67072 6.86608V6.79694C1.67072 6.28643 1.67167 5.96345 1.69913 5.71909C1.72565 5.49367 1.76733 5.40937 1.80521 5.35823C1.84215 5.30613 1.90845 5.23983 2.11398 5.14417C2.33751 5.03999 2.64438 4.93675 3.12743 4.77479L3.14069 4.771ZM17.0874 9.28888L18.0971 8.72912C18.4655 8.52359 18.6966 8.39478 18.8633 8.27923C19.0167 8.1722 19.0669 8.10874 19.0944 8.06138C19.1228 8.01402 19.1531 7.94015 19.1721 7.75451C19.192 7.55182 19.1929 7.28756 19.1929 6.86608V6.79694C19.1929 6.28643 19.192 5.96345 19.1645 5.71909C19.138 5.49367 19.0963 5.40937 19.0584 5.35823C19.0215 5.30613 18.9552 5.23983 18.7497 5.14417C18.5261 5.03999 18.2193 4.93675 17.7362 4.77479L17.7229 4.771C17.6557 6.21066 17.4918 7.80186 17.0874 9.28888ZM10.4318 1.67099C8.78378 1.67099 7.43221 1.8159 6.40455 1.98923C5.26135 2.18245 5.02172 2.25443 4.76978 2.56509C4.52163 2.87008 4.49795 3.1599 4.54815 4.44328C4.63339 6.58194 4.91564 8.89108 5.78891 10.6471C6.22081 11.5128 6.78531 12.2212 7.52029 12.7138C8.24959 13.2034 9.192 13.5103 10.4318 13.5103C11.6726 13.5103 12.614 13.2034 13.3443 12.7138C14.0793 12.2212 14.6428 11.5128 15.0738 10.6461C15.948 8.89108 16.2302 6.58289 16.3145 4.44234C16.3666 3.1599 16.343 2.87008 16.0948 2.56509C15.8429 2.25443 15.6023 2.18245 14.4591 1.98923C13.1279 1.77131 11.7808 1.66486 10.4318 1.67099Z" fill="var(--fill-0, white)" stroke="var(--stroke-0, white)" stroke-width="0.5"/>
</svg>
