<svg preserveAspectRatio="none" width="100%" height="100%" overflow="visible" style="display: block;" viewBox="0 0 27.225 27.2254" fill="none" xmlns="http://www.w3.org/2000/svg">
<path id="Vector" fill-rule="evenodd" clip-rule="evenodd" d="M8.08446 0.851213C9.91167 0.550971 11.7608 0.404337 13.6125 0.41285C15.8571 0.41285 17.7125 0.610543 19.1405 0.851213L19.3063 0.879455C20.5465 1.08697 21.5779 1.26011 22.3834 2.25225C22.9004 2.88954 23.0674 3.57839 23.1054 4.34584L23.7096 4.54721C24.2781 4.73631 24.7779 4.90331 25.172 5.08749C25.5993 5.28641 25.991 5.54182 26.2906 5.95808C26.5902 6.37434 26.7094 6.82621 26.7634 7.29404C26.8125 7.72749 26.8125 8.25181 26.8125 8.85348V9.0303C26.8125 9.52392 26.8125 9.95983 26.7757 10.3245C26.7364 10.7187 26.6492 11.103 26.4318 11.4738C26.2121 11.8459 25.9186 12.1087 25.5932 12.3346C25.2924 12.5433 24.9117 12.7558 24.4795 12.9952L21.2378 14.7966C20.5747 16.0994 19.6661 17.261 18.4136 18.0996C17.3392 18.8204 16.0536 19.2772 14.5334 19.4073V21.9012H16.2893C16.7861 21.9012 17.2676 22.0734 17.6517 22.3884C18.0359 22.7034 18.2991 23.1417 18.3964 23.6289L18.6653 24.971H20.9799C21.2242 24.971 21.4584 25.068 21.6311 25.2407C21.8038 25.4134 21.9009 25.6477 21.9009 25.8919C21.9009 26.1362 21.8038 26.3704 21.6311 26.5431C21.4584 26.7158 21.2242 26.8129 20.9799 26.8129H6.24506C6.00081 26.8129 5.76657 26.7158 5.59386 26.5431C5.42115 26.3704 5.32413 26.1362 5.32413 25.8919C5.32413 25.6477 5.42115 25.4134 5.59386 25.2407C5.76657 25.068 6.00081 24.971 6.24506 24.971H8.55966L8.82857 23.6289C8.92595 23.1417 9.1891 22.7034 9.57327 22.3884C9.95743 22.0734 10.4389 21.9012 10.9357 21.9012H12.6916V19.4073C11.1714 19.2772 9.8858 18.8204 8.81138 18.1008C7.56015 17.261 6.65027 16.0994 5.9872 14.7966L2.74552 12.9952C2.36394 12.7929 1.99227 12.5725 1.63181 12.3346C1.29175 12.1145 1.00555 11.8207 0.794379 11.4751C0.594477 11.1223 0.476548 10.7291 0.449337 10.3245C0.4125 9.95983 0.4125 9.52392 0.4125 9.0303V8.85225C0.4125 8.25304 0.4125 7.72749 0.461617 7.29404C0.515644 6.82621 0.633523 6.37311 0.934361 5.95808C1.23397 5.54182 1.62567 5.28641 2.05176 5.08626C2.44837 4.90208 2.9469 4.73631 3.51542 4.54721L4.11955 4.34584C4.15762 3.57717 4.32461 2.88954 4.84156 2.25225C5.6483 1.25888 6.67851 1.08574 7.91992 0.879455L8.08446 0.851213ZM10.4384 24.971H16.7866L16.5902 23.9899C16.5763 23.9203 16.5387 23.8577 16.4839 23.8127C16.429 23.7677 16.3603 23.7431 16.2893 23.7431H10.9357C10.8647 23.7431 10.796 23.7677 10.7411 23.8127C10.6863 23.8577 10.6487 23.9203 10.6348 23.9899L10.4384 24.971ZM4.16007 6.27365C4.24848 8.14007 4.45845 10.203 4.984 12.1308L3.67505 11.4051C3.19739 11.1386 2.89778 10.9716 2.68167 10.8218C2.48275 10.6831 2.41767 10.6008 2.38206 10.5394C2.34523 10.478 2.30593 10.3822 2.28137 10.1416C2.25599 9.75819 2.24698 9.37391 2.25436 8.98978V8.90014C2.25436 8.2383 2.25559 7.81959 2.2912 7.50279C2.32558 7.21054 2.37961 7.10126 2.42872 7.03495C2.47661 6.96742 2.56257 6.88146 2.82902 6.75745C3.11881 6.62238 3.51665 6.48853 4.14288 6.27856L4.16007 6.27365ZM22.241 12.1308L23.55 11.4051C24.0276 11.1386 24.3272 10.9716 24.5433 10.8218C24.7422 10.6831 24.8073 10.6008 24.8429 10.5394C24.8798 10.478 24.9191 10.3822 24.9436 10.1416C24.9694 9.87879 24.9706 9.5362 24.9706 8.98978V8.90014C24.9706 8.2383 24.9694 7.81959 24.9338 7.50279C24.8994 7.21054 24.8454 7.10126 24.7963 7.03495C24.7484 6.96742 24.6624 6.88146 24.396 6.75745C24.1062 6.62238 23.7084 6.48853 23.0821 6.27856L23.0649 6.27365C22.9777 8.14007 22.7653 10.203 22.241 12.1308ZM13.6125 2.25471C11.4759 2.25471 9.72372 2.44258 8.39144 2.66729C6.90936 2.91778 6.5987 3.0111 6.27207 3.41386C5.95036 3.80924 5.91966 4.18498 5.98474 5.84879C6.09525 8.62141 6.46117 11.615 7.5933 13.8916C8.15323 15.0139 8.88506 15.9324 9.83791 16.5709C10.7834 17.2057 12.0052 17.6035 13.6125 17.6035C15.2211 17.6035 16.4416 17.2057 17.3883 16.5709C18.3412 15.9324 19.0718 15.0139 19.6305 13.8904C20.7638 11.615 21.1297 8.62264 21.239 5.84757C21.3066 4.18498 21.2759 3.80924 20.9542 3.41386C20.6275 3.0111 20.3156 2.91778 18.8336 2.66729C17.1077 2.38477 15.3613 2.24676 13.6125 2.25471Z" fill="var(--fill-0, #A4A4A4)" stroke="var(--stroke-0, #A4A4A4)" stroke-width="0.825"/>
</svg>
